<svg width="350" height="342" viewBox="0 0 350 342" fill="none" xmlns="http://www.w3.org/2000/svg">
<path fill-rule="evenodd" clip-rule="evenodd" d="M243.255 49.0623L243.038 48.3656L242.812 47.6453L243.724 48.6146L285.266 63.6902L299.183 106.614L256.69 90.8073L243.255 49.0623Z" fill="#D8D8D8"/>
<path fill-rule="evenodd" clip-rule="evenodd" d="M334.514 73.1323L291.888 57.1605L256.421 91.0649L299.104 106.936L334.514 73.1323Z" fill="#1BBEAD"/>
<path fill-rule="evenodd" clip-rule="evenodd" d="M277.943 13.8164L291.894 57.1531L256.42 91.065L242.486 47.7117L277.943 13.8164Z" fill="#A0E3DD"/>
<path d="M278.11 13.8861L277.943 13.8242L291.685 57.3546L334.514 73.1323L320.18 30.1145L278.11 13.8861Z" fill="#64DDD1"/>
<path fill-rule="evenodd" clip-rule="evenodd" d="M138.062 75.7377L137.846 75.0384L137.624 74.3155L138.535 75.2849L180.237 90.2083L193.995 133.284L151.341 117.631L138.062 75.7377Z" fill="#D8D8D8"/>
<path fill-rule="evenodd" clip-rule="evenodd" d="M229.719 99.4248L186.932 83.6065L151.067 117.892L193.911 133.608L229.719 99.4248Z" fill="#1BBEAD"/>
<path fill-rule="evenodd" clip-rule="evenodd" d="M173.15 40.1079L186.94 83.5988L151.067 117.892L137.295 74.384L173.15 40.1079Z" fill="#A0E3DD"/>
<path d="M173.317 40.1773L173.149 40.1159L186.728 83.8027L229.72 99.4247L215.543 56.2566L173.317 40.1773Z" fill="#64DDD1"/>
<path fill-rule="evenodd" clip-rule="evenodd" d="M82.6749 53.9792L82.4596 53.2799L82.2371 52.557L83.1485 53.5264L124.85 68.4497L138.608 111.525L95.954 95.8727L82.6749 53.9792Z" fill="#D8D8D8"/>
<path fill-rule="evenodd" clip-rule="evenodd" d="M174.332 77.6663L131.546 61.8479L95.6806 96.1333L138.524 111.85L174.332 77.6663Z" fill="#1BBEAD"/>
<path fill-rule="evenodd" clip-rule="evenodd" d="M117.764 18.3494L131.553 61.8402L95.6804 96.1332L81.9084 52.6255L117.764 18.3494Z" fill="#A0E3DD"/>
<path d="M117.93 18.4187L117.763 18.3574L131.341 62.0442L174.333 77.6662L160.157 34.4981L117.93 18.4187Z" fill="#64DDD1"/>
<path fill-rule="evenodd" clip-rule="evenodd" d="M209.798 156.569L209.583 155.87L209.36 155.147L210.272 156.116L251.973 171.04L265.731 214.115L223.077 198.463L209.798 156.569Z" fill="#D8D8D8"/>
<path fill-rule="evenodd" clip-rule="evenodd" d="M301.455 180.256L258.669 164.438L222.804 198.723L265.647 214.44L301.455 180.256Z" fill="#1BBEAD"/>
<path fill-rule="evenodd" clip-rule="evenodd" d="M244.887 120.939L258.676 164.43L222.803 198.723L209.031 155.215L244.887 120.939Z" fill="#A0E3DD"/>
<path d="M245.053 121.009L244.886 120.947L258.464 164.634L301.456 180.256L287.28 137.088L245.053 121.009Z" fill="#64DDD1"/>
<path fill-rule="evenodd" clip-rule="evenodd" d="M154.444 133.397L154.229 132.698L154.007 131.975L154.918 132.944L196.62 147.867L210.378 190.943L167.723 175.29L154.444 133.397Z" fill="#D8D8D8"/>
<path fill-rule="evenodd" clip-rule="evenodd" d="M246.102 157.084L203.315 141.266L167.45 175.551L210.294 191.268L246.102 157.084Z" fill="#1BBEAD"/>
<path fill-rule="evenodd" clip-rule="evenodd" d="M189.533 97.7671L203.323 141.258L167.45 175.551L153.678 132.043L189.533 97.7671Z" fill="#A0E3DD"/>
<path d="M189.7 97.8364L189.532 97.7751L203.111 141.462L246.103 157.084L231.926 113.916L189.7 97.8364Z" fill="#64DDD1"/>
<path fill-rule="evenodd" clip-rule="evenodd" d="M99.0596 111.638L98.8443 110.939L98.6218 110.216L99.5332 111.186L141.235 126.109L154.993 169.185L112.339 153.532L99.0596 111.638Z" fill="#D8D8D8"/>
<path fill-rule="evenodd" clip-rule="evenodd" d="M190.717 135.325L147.93 119.507L112.065 153.793L154.909 169.509L190.717 135.325Z" fill="#1BBEAD"/>
<path fill-rule="evenodd" clip-rule="evenodd" d="M134.148 76.0085L147.938 119.499L112.065 153.792L98.2932 110.285L134.148 76.0085Z" fill="#A0E3DD"/>
<path d="M134.315 76.0779L134.147 76.0165L147.726 119.703L190.718 135.325L176.541 92.1572L134.315 76.0779Z" fill="#64DDD1"/>
<path fill-rule="evenodd" clip-rule="evenodd" d="M226.874 214.951L226.659 214.252L226.436 213.529L227.348 214.498L269.05 229.422L282.807 272.497L240.153 256.845L226.874 214.951Z" fill="#D8D8D8"/>
<path fill-rule="evenodd" clip-rule="evenodd" d="M318.531 238.638L275.745 222.82L239.88 257.105L282.724 272.822L318.531 238.638Z" fill="#1BBEAD"/>
<path fill-rule="evenodd" clip-rule="evenodd" d="M261.963 179.321L275.753 222.812L239.88 257.105L226.108 213.597L261.963 179.321Z" fill="#A0E3DD"/>
<path d="M262.129 179.391L261.962 179.329L275.541 223.016L318.532 238.638L304.356 195.47L262.129 179.391Z" fill="#64DDD1"/>
<path fill-rule="evenodd" clip-rule="evenodd" d="M172.21 192.502L171.995 191.802L171.772 191.079L172.684 192.049L214.386 206.972L228.143 250.048L185.489 234.395L172.21 192.502Z" fill="#D8D8D8"/>
<path fill-rule="evenodd" clip-rule="evenodd" d="M263.867 216.189L221.081 200.37L185.216 234.656L228.06 250.372L263.867 216.189Z" fill="#1BBEAD"/>
<path fill-rule="evenodd" clip-rule="evenodd" d="M207.299 156.872L221.089 200.363L185.216 234.656L171.444 191.148L207.299 156.872Z" fill="#A0E3DD"/>
<path d="M207.465 156.941L207.298 156.88L220.877 200.567L263.868 216.189L249.692 173.021L207.465 156.941Z" fill="#64DDD1"/>
<path fill-rule="evenodd" clip-rule="evenodd" d="M16.1338 270.02L15.9186 269.321L15.696 268.598L16.6075 269.567L58.3094 284.491L72.0673 327.566L29.4129 311.914L16.1338 270.02Z" fill="#D8D8D8"/>
<path fill-rule="evenodd" clip-rule="evenodd" d="M107.791 293.707L65.0046 277.889L29.1396 312.174L71.9834 327.891L107.791 293.707Z" fill="#1BBEAD"/>
<path fill-rule="evenodd" clip-rule="evenodd" d="M51.2227 234.39L65.0124 277.881L29.1394 312.174L15.3674 268.666L51.2227 234.39Z" fill="#A0E3DD"/>
<path d="M51.3892 234.46L51.2216 234.398L64.8004 278.085L107.792 293.707L93.6156 250.539L51.3892 234.46Z" fill="#64DDD1"/>
</svg>
