<svg width="270" height="123" viewBox="0 0 270 123" fill="none" xmlns="http://www.w3.org/2000/svg">
<path d="M1.85547 85.5484L134.747 66.5293L267.871 85.5484L135.211 109.67L1.85547 85.5484Z" fill="#64DDD1"/>
<path d="M2.55123 96.6795L1.85547 85.5464L135.211 109.668V122.425L2.55123 96.6795Z" fill="#1BBEAD"/>
<path d="M135.211 122.425V109.668L267.871 85.5464L267.407 96.6795L135.211 122.425Z" fill="#A0E3DD"/>
<path d="M0.927734 51.081L134.747 34.3813L269.03 51.081L135.443 72.6515L0.927734 51.081Z" fill="#3761CB"/>
<path d="M135.443 85.4067V72.65L269.031 51.0796L268.567 62.4447L135.443 85.4067Z" fill="#4971DA"/>
<path d="M1.39158 62.4447L0.927734 51.0796L135.443 72.65V85.4067L1.39158 62.4447Z" fill="#062A85"/>
<path d="M0 14.6122L134.747 0L269.958 14.6122L135.443 33.1674L0 14.6122Z" fill="#64DDD1"/>
<path d="M0.463842 26.2113L0 14.6143L135.443 33.1695V46.39L0.463842 26.2113Z" fill="#1BBEAD"/>
<path d="M135.442 46.39V33.1695L269.957 14.6143L269.494 26.2113L135.442 46.39Z" fill="#A0E3DD"/>
</svg>
