<svg width="156" height="149" viewBox="0 0 156 149" fill="none" xmlns="http://www.w3.org/2000/svg">
<path d="M107.844 29.6884L46.8486 0L122.919 13.9164L107.844 29.6884Z" fill="#7DF9EC"/>
<path d="M46.8493 0.000488281L25.5124 63.5521L0.000976562 64.4799L46.8493 0.000488281Z" fill="#7DF9EC"/>
<path d="M107.844 29.6884L122.919 13.9165L155.388 84.4263L107.844 29.6884Z" fill="#C4FCF7"/>
<path d="M26.903 138.237L0 64.48L25.5115 63.5522L26.903 138.237Z" fill="#1AA798"/>
<path d="M96.248 119.682L155.388 84.4272L105.989 148.907L96.248 119.682Z" fill="#C4FCF7"/>
<path d="M96.2481 119.68L105.989 148.905L26.9033 138.235L96.2481 119.68Z" fill="#1BAC9D"/>
<path d="M46.8486 0L107.844 29.6883L25.5117 63.5516L46.8486 0Z" fill="#6DEFE2"/>
<path d="M107.844 29.6899L155.388 84.4278L96.248 119.683L107.844 29.6899Z" fill="#A0E3DD"/>
<path d="M96.2481 119.682L26.9033 138.237L25.5117 63.5522L96.2481 119.682Z" fill="#1BBEAD"/>
<path d="M107.844 29.6899L96.2481 119.683L25.5117 63.5532L107.844 29.6899Z" fill="#64DDD1"/>
</svg>
