<svg width="462" height="430" viewBox="0 0 462 430" fill="none" xmlns="http://www.w3.org/2000/svg">
<path fill-rule="evenodd" clip-rule="evenodd" d="M238.758 10.9192L232.009 8.12354L225.259 10.9192L225.518 11.5447L232.009 8.85627L238.499 11.5447L238.758 10.9192ZM211.76 16.5106L212.02 17.1361L198.521 22.7275L198.262 22.102L211.76 16.5106ZM184.763 27.6934L185.022 28.3189L171.523 33.9103L171.264 33.2848L184.763 27.6934ZM157.765 38.8762L158.024 39.5017L144.525 45.0931L144.266 44.4676L157.765 38.8762ZM130.768 50.059L117.269 55.6504L117.528 56.2759L131.027 50.6844L130.768 50.059ZM103.77 61.2418L104.029 61.8672L97.5385 64.5556L94.8502 71.046L94.2247 70.7869L97.0204 64.0375L103.77 61.2418ZM88.6333 84.2858L89.2588 84.5448L83.6674 98.0437L83.0419 97.7846L88.6333 84.2858ZM77.4505 111.283L78.076 111.542L72.4846 125.041L71.8591 124.782L77.4505 111.283ZM66.2677 138.281L66.8932 138.54L61.3018 152.039L60.6763 151.78L66.2677 138.281ZM55.0849 165.279L49.4935 178.778L50.119 179.037L55.7104 165.538L55.0849 165.279ZM43.9021 192.276L44.5276 192.535L41.8392 199.026L44.5276 205.516L43.9021 205.775L41.1064 199.026L43.9021 192.276ZM49.4935 219.274L55.0849 232.773L55.7104 232.514L50.119 219.015L49.4935 219.274ZM60.6763 246.272L61.3018 246.013L66.8932 259.511L66.2677 259.771L60.6763 246.272ZM71.8591 273.269L72.4846 273.01L78.076 286.509L77.4505 286.768L71.8591 273.269ZM83.0419 300.267L88.6333 313.766L89.2588 313.507L83.6674 300.008L83.0419 300.267ZM94.2247 327.265L94.8502 327.006L97.5385 333.496L104.029 336.184L103.77 336.81L97.0204 334.014L94.2247 327.265ZM117.269 342.401L117.528 341.776L131.027 347.367L130.768 347.993L117.269 342.401ZM144.266 353.584L144.525 352.959L158.024 358.55L157.765 359.175L144.266 353.584ZM171.264 364.767L171.523 364.141L185.022 369.733L184.763 370.358L171.264 364.767ZM198.262 375.95L198.521 375.324L212.02 380.916L211.76 381.541L198.262 375.95ZM225.259 387.132L225.518 386.507L232.009 389.195L238.499 386.507L238.758 387.132L232.009 389.928L225.259 387.132ZM252.257 381.541L251.998 380.916L265.497 375.324L265.756 375.95L252.257 381.541ZM279.255 370.358L278.996 369.733L292.494 364.141L292.753 364.767L279.255 370.358ZM306.252 359.175L305.993 358.55L319.492 352.959L319.751 353.584L306.252 359.175ZM333.25 347.993L346.749 342.401L346.49 341.776L332.991 347.367L333.25 347.993ZM360.248 336.81L366.997 334.014L369.793 327.265L369.167 327.006L366.479 333.496L359.989 336.184L360.248 336.81ZM375.384 313.766L374.759 313.507L380.35 300.008L380.976 300.267L375.384 313.766ZM386.567 286.768L385.941 286.509L391.533 273.01L392.158 273.269L386.567 286.768ZM397.75 259.771L397.124 259.511L402.716 246.013L403.341 246.272L397.75 259.771ZM408.933 232.773L408.307 232.514L413.899 219.015L414.524 219.274L408.933 232.773ZM420.115 205.775L419.49 205.516L422.178 199.026L419.49 192.535L420.115 192.276L422.911 199.026L420.115 205.775ZM414.524 178.778L413.898 179.037L408.307 165.538L408.933 165.279L414.524 178.778ZM403.341 151.78L402.716 152.039L397.124 138.54L397.75 138.281L403.341 151.78ZM392.158 124.782L391.533 125.041L385.941 111.542L386.567 111.283L392.158 124.782ZM380.976 97.7846L375.384 84.2858L374.759 84.5448L380.35 98.0437L380.976 97.7846ZM369.793 70.7869L369.167 71.046L366.479 64.5556L359.989 61.8672L360.248 61.2418L366.997 64.0375L369.793 70.7869ZM346.749 55.6504L346.49 56.2758L332.991 50.6844L333.25 50.059L346.749 55.6504ZM319.751 44.4676L319.492 45.093L305.993 39.5017L306.252 38.8762L319.751 44.4676ZM292.753 33.2848L292.494 33.9103L278.996 28.3189L279.255 27.6934L292.753 33.2848ZM265.756 22.102L252.257 16.5106L251.998 17.1361L265.497 22.7275L265.756 22.102Z" fill="#062A85"/>
<path fill-rule="evenodd" clip-rule="evenodd" d="M96.1104 64.6494H103.353V65.3264H97.1238L99.5204 71.1071L98.8951 71.3664L96.1104 64.6494ZM116.824 64.6494H130.296V65.3264H116.824V64.6494ZM143.767 64.6494H157.239V65.3264H143.767V64.6494ZM170.71 64.6494H184.182V65.3264H170.71V64.6494ZM197.653 64.6494H211.125V65.3264H197.653V64.6494ZM224.596 64.6494H238.068V65.3264H224.596V64.6494ZM251.539 64.6494H265.011V65.3264H251.539V64.6494ZM278.482 64.6494H291.953V65.3264H278.482V64.6494ZM305.425 64.6494H318.896V65.3264H305.425V64.6494ZM332.368 64.6494H345.839V65.3264H332.368V64.6494ZM359.311 64.6494H366.553L363.769 71.3664L363.143 71.1072L365.54 65.3264H359.311V64.6494ZM109.258 96.3618L104.076 83.8641L104.702 83.6048L109.883 96.1025L109.258 96.3618ZM358.587 83.8641L353.406 96.3618L352.781 96.1025L357.962 83.6049L358.587 83.8641ZM119.62 121.357L114.439 108.859L115.064 108.6L120.246 121.098L119.62 121.357ZM348.225 108.859L343.043 121.357L342.418 121.098L347.599 108.6L348.225 108.859ZM129.983 146.353L124.802 133.855L125.427 133.596L130.608 146.093L129.983 146.353ZM337.862 133.855L332.681 146.353L332.055 146.093L337.237 133.596L337.862 133.855ZM140.346 171.348L135.164 158.85L135.79 158.591L140.971 171.089L140.346 171.348ZM327.499 158.85L322.318 171.348L321.693 171.089L326.874 158.591L327.499 158.85ZM150.708 196.343L145.527 183.846L146.152 183.586L151.334 196.084L150.708 196.343ZM317.137 183.846L311.955 196.343L311.33 196.084L316.511 183.586L317.137 183.846ZM306.774 208.841L301.593 221.339L300.967 221.079L306.149 208.582L306.774 208.841ZM161.071 221.339L155.89 208.841L156.515 208.582L161.696 221.079L161.071 221.339ZM296.411 233.836L291.23 246.334L290.605 246.075L295.786 233.577L296.411 233.836ZM171.434 246.334L166.252 233.836L166.878 233.577L172.059 246.075L171.434 246.334ZM286.049 258.832L280.867 271.329L280.242 271.07L285.423 258.573L286.049 258.832ZM181.796 271.329L176.615 258.832L177.24 258.573L182.422 271.07L181.796 271.329ZM192.159 296.325L186.978 283.827L187.603 283.568L192.784 296.066L192.159 296.325ZM275.686 283.827L270.505 296.325L269.879 296.066L275.061 283.568L275.686 283.827ZM202.522 321.32L197.34 308.823L197.966 308.563L203.147 321.061L202.522 321.32ZM265.323 308.823L260.142 321.32L259.517 321.061L264.698 308.563L265.323 308.823ZM212.884 346.316L207.703 333.818L208.328 333.559L213.51 346.056L212.884 346.316ZM254.961 333.818L249.779 346.316L249.154 346.056L254.335 333.559L254.961 333.818ZM223.247 371.311L218.066 358.813L218.691 358.554L223.872 371.052L223.247 371.311ZM244.598 358.813L239.417 371.311L238.791 371.052L243.973 358.554L244.598 358.813ZM228.428 383.809L229.054 383.549L231.332 389.044L233.61 383.55L234.235 383.809L231.332 390.812L228.428 383.809Z" fill="#062A85"/>
<path fill-rule="evenodd" clip-rule="evenodd" d="M230.712 7.93848L235.825 13.0512L235.346 13.5299L230.949 9.13324L228.552 14.9144L227.927 14.6551L230.712 7.93848ZM245.334 22.5606L254.844 32.0701L254.365 32.5488L244.855 23.0393L245.334 22.5606ZM264.353 41.5795L273.862 51.0889L273.384 51.5676L263.874 42.0582L264.353 41.5795ZM283.372 60.5983L292.881 70.1078L292.403 70.5864L282.893 61.077L283.372 60.5983ZM302.391 79.6172L311.9 89.1266L311.421 89.6053L301.912 80.0959L302.391 79.6172ZM321.409 98.636L330.919 108.145L330.44 108.624L320.931 99.1147L321.409 98.636ZM340.428 117.655L349.938 127.164L349.459 127.643L339.95 118.134L340.428 117.655ZM359.447 136.674L368.957 146.183L368.478 146.662L358.968 137.152L359.447 136.674ZM378.466 155.693L387.975 165.202L387.497 165.681L377.987 156.171L378.466 155.693ZM397.485 174.711L406.994 184.221L406.516 184.699L397.006 175.19L397.485 174.711ZM416.504 193.73L421.616 198.843L414.9 201.628L414.64 201.003L420.422 198.606L416.025 194.209L416.504 193.73ZM217.561 39.6505L222.744 27.1528L223.369 27.4121L218.186 39.9098L217.561 39.6505ZM402.402 206.811L389.904 211.994L389.645 211.369L402.143 206.186L402.402 206.811ZM207.195 64.646L212.378 52.1482L213.004 52.4075L207.821 64.9053L207.195 64.646ZM377.407 217.177L364.909 222.359L364.65 221.734L377.147 216.551L377.407 217.177ZM196.83 89.6414L202.013 77.1437L202.638 77.403L197.455 89.9007L196.83 89.6414ZM352.411 227.542L339.913 232.725L339.654 232.1L352.152 226.917L352.411 227.542ZM186.464 114.637L191.647 102.139L192.272 102.398L187.09 114.896L186.464 114.637ZM327.416 237.908L314.918 243.091L314.659 242.465L327.156 237.283L327.416 237.908ZM302.42 248.273L289.923 253.456L289.663 252.831L302.161 247.648L302.42 248.273ZM176.099 139.632L181.282 127.135L181.907 127.394L176.724 139.892L176.099 139.632ZM277.425 258.639L264.927 263.822L264.668 263.196L277.166 258.014L277.425 258.639ZM165.733 164.628L170.916 152.13L171.541 152.389L166.358 164.887L165.733 164.628ZM252.429 269.004L239.932 274.187L239.672 273.562L252.17 268.379L252.429 269.004ZM155.368 189.623L160.55 177.125L161.176 177.385L155.993 189.883L155.368 189.623ZM227.434 279.37L214.936 284.553L214.677 283.928L227.175 278.745L227.434 279.37ZM145.002 214.619L150.185 202.121L150.81 202.38L145.627 214.878L145.002 214.619ZM134.636 239.614L139.819 227.116L140.445 227.376L135.262 239.873L134.636 239.614ZM202.439 289.736L189.941 294.918L189.682 294.293L202.179 289.11L202.439 289.736ZM124.271 264.609L129.454 252.112L130.079 252.371L124.896 264.869L124.271 264.609ZM177.443 300.101L164.945 305.284L164.686 304.659L177.184 299.476L177.443 300.101ZM113.905 289.605L119.088 277.107L119.713 277.367L114.531 289.864L113.905 289.605ZM152.448 310.467L139.95 315.65L139.691 315.024L152.188 309.841L152.448 310.467ZM103.54 314.6L108.723 302.103L109.348 302.362L104.165 314.86L103.54 314.6ZM127.452 320.832L114.955 326.015L114.695 325.39L127.193 320.207L127.452 320.832ZM98.357 327.098L98.9824 327.357L96.7043 332.851L102.197 330.573L102.457 331.198L95.4522 334.103L98.357 327.098Z" fill="#062A85"/>
<path fill-rule="evenodd" clip-rule="evenodd" d="M40.1895 198.843L45.3022 193.731L45.7809 194.209L41.3842 198.606L47.1654 201.003L46.906 201.629L40.1895 198.843ZM54.8116 184.221L64.321 174.712L64.7997 175.19L55.2903 184.7L54.8116 184.221ZM73.8305 165.202L83.3399 155.693L83.8186 156.172L74.3092 165.681L73.8305 165.202ZM92.8493 146.183L102.359 136.674L102.837 137.153L93.328 146.662L92.8493 146.183ZM111.868 127.165L121.378 117.655L121.856 118.134L112.347 127.643L111.868 127.165ZM130.887 108.146L140.396 98.6363L140.875 99.115L131.366 108.624L130.887 108.146ZM149.906 89.1269L159.415 79.6175L159.894 80.0961L150.385 89.6056L149.906 89.1269ZM168.925 70.108L178.434 60.5986L178.913 61.0773L169.403 70.5867L168.925 70.108ZM187.944 51.0892L197.453 41.5798L197.932 42.0584L188.422 51.5679L187.944 51.0892ZM206.962 32.0703L216.472 22.5609L216.95 23.0396L207.441 32.549L206.962 32.0703ZM225.981 13.0515L231.094 7.93876L233.879 14.6554L233.254 14.9147L230.857 9.13351L226.46 13.5302L225.981 13.0515ZM71.9015 211.994L59.4038 206.811L59.6631 206.186L72.1608 211.369L71.9015 211.994ZM239.062 27.1531L244.245 39.6508L243.62 39.9102L238.437 27.4124L239.062 27.1531ZM96.8969 222.36L84.3992 217.177L84.6585 216.552L97.1562 221.734L96.8969 222.36ZM249.428 52.1485L254.61 64.6463L253.985 64.9056L248.802 52.4079L249.428 52.1485ZM121.892 232.725L109.395 227.543L109.654 226.917L122.152 232.1L121.892 232.725ZM259.793 77.144L264.976 89.6417L264.351 89.901L259.168 77.4033L259.793 77.144ZM146.888 243.091L134.39 237.908L134.649 237.283L147.147 242.466L146.888 243.091ZM270.159 102.139L275.342 114.637L274.716 114.896L269.533 102.399L270.159 102.139ZM280.524 127.135L285.707 139.633L285.082 139.892L279.899 127.394L280.524 127.135ZM171.883 253.456L159.386 248.274L159.645 247.648L172.143 252.831L171.883 253.456ZM290.89 152.13L296.073 164.628L295.447 164.887L290.265 152.39L290.89 152.13ZM196.879 263.822L184.381 258.639L184.64 258.014L197.138 263.197L196.879 263.822ZM301.255 177.126L306.438 189.623L305.813 189.883L300.63 177.385L301.255 177.126ZM221.874 274.188L209.376 269.005L209.636 268.379L222.133 273.562L221.874 274.188ZM311.621 202.121L316.804 214.619L316.179 214.878L310.996 202.38L311.621 202.121ZM246.87 284.553L234.372 279.37L234.631 278.745L247.129 283.928L246.87 284.553ZM271.865 294.919L259.367 289.736L259.627 289.111L272.124 294.293L271.865 294.919ZM321.987 227.117L327.169 239.614L326.544 239.874L321.361 227.376L321.987 227.117ZM296.86 305.284L284.363 300.101L284.622 299.476L297.12 304.659L296.86 305.284ZM332.352 252.112L337.535 264.61L336.91 264.869L331.727 252.371L332.352 252.112ZM321.856 315.65L309.358 310.467L309.617 309.842L322.115 315.024L321.856 315.65ZM342.718 277.107L347.901 289.605L347.275 289.865L342.092 277.367L342.718 277.107ZM346.851 326.015L334.354 320.833L334.613 320.207L347.111 325.39L346.851 326.015ZM353.083 302.103L358.266 314.601L357.641 314.86L352.458 302.362L353.083 302.103ZM359.349 331.198L359.608 330.573L365.102 332.851L362.824 327.358L363.449 327.098L366.354 334.103L359.349 331.198Z" fill="#062A85"/>
<path fill-rule="evenodd" clip-rule="evenodd" d="M230.618 16.2713V9.47754H231.295V16.2713H230.618ZM230.618 43.4463V29.8588H231.295V43.4463H230.618ZM230.618 70.6214V57.0339H231.295V70.6214H230.618ZM96.9247 65.0437L103.577 67.8001L103.318 68.4255L98.7083 66.5155L102.299 70.102L101.82 70.5809L97.6017 66.3668V72.2579H96.9247V65.0437ZM366.193 65.0447V72.2579H365.516V66.3668L361.297 70.581L360.819 70.1021L364.415 66.5093L359.764 68.4257L359.506 67.7998L366.193 65.0447ZM347.326 73.5507L334.888 78.6756L334.63 78.0497L347.068 72.9248L347.326 73.5507ZM128.055 78.6753L115.687 73.5504L115.946 72.925L128.315 78.0499L128.055 78.6753ZM121.005 89.7456L111.413 80.1633L111.891 79.6843L121.484 89.2666L121.005 89.7456ZM351.705 80.1633L342.112 89.7456L341.634 89.2667L351.226 79.6844L351.705 80.1633ZM322.449 83.8005L310.011 88.9254L309.753 88.2995L322.192 83.1746L322.449 83.8005ZM152.793 88.9252L140.424 83.8002L140.683 83.1749L153.052 88.2998L152.793 88.9252ZM230.618 97.7964V84.2089H231.295V97.7964H230.618ZM96.9247 99.0884V85.6732H97.6017V99.0884H96.9247ZM365.516 99.0884V85.6732H366.193V99.0884H365.516ZM297.573 94.0504L285.135 99.1753L284.877 98.5494L297.315 93.4245L297.573 94.0504ZM177.53 99.175L165.162 94.0501L165.421 93.4247L177.789 98.5496L177.53 99.175ZM140.19 108.91L130.598 99.3279L131.076 98.849L140.669 108.431L140.19 108.91ZM332.52 99.328L322.927 108.91L322.449 108.431L332.041 98.849L332.52 99.328ZM272.697 104.3L260.258 109.425L260.001 108.799L272.439 103.674L272.697 104.3ZM202.268 109.425L189.899 104.3L190.158 103.675L202.527 108.799L202.268 109.425ZM230.618 124.971V111.384H231.295V124.971H230.618ZM96.9247 125.919V112.504H97.6017V125.919H96.9247ZM365.516 125.919V112.504H366.193V125.919H365.516ZM247.82 114.55L235.382 119.675L235.124 119.049L247.562 113.924L247.82 114.55ZM227.005 119.675L214.636 114.55L214.896 113.924L227.264 119.049L227.005 119.675ZM159.375 128.075L149.783 118.493L150.261 118.014L159.854 127.596L159.375 128.075ZM313.335 118.493L303.742 128.075L303.264 127.596L312.856 118.014L313.335 118.493ZM222.944 124.8L210.506 129.925L210.248 129.299L222.686 124.174L222.944 124.8ZM251.743 129.925L239.374 124.8L239.633 124.174L252.002 129.299L251.743 129.925ZM198.067 135.05L185.629 140.175L185.371 139.549L197.81 134.424L198.067 135.05ZM276.48 140.174L264.111 135.05L264.37 134.424L276.739 139.549L276.48 140.174ZM178.561 147.24L168.968 137.657L169.446 137.178L179.039 146.761L178.561 147.24ZM294.149 137.657L284.557 147.24L284.078 146.761L293.671 137.178L294.149 137.657ZM230.618 152.147V138.559H231.295V152.147H230.618ZM96.9247 152.749V139.334H97.6017V152.749H96.9247ZM365.516 152.749V139.334H366.193V152.749H365.516ZM173.191 145.3L160.753 150.425L160.495 149.799L172.933 144.674L173.191 145.3ZM301.218 150.424L288.849 145.299L289.108 144.674L301.477 149.799L301.218 150.424ZM148.315 155.55L135.876 160.674L135.619 160.049L148.057 154.924L148.315 155.55ZM325.955 160.674L313.586 155.549L313.845 154.924L326.214 160.049L325.955 160.674ZM197.746 166.404L188.153 156.822L188.632 156.343L198.224 165.925L197.746 166.404ZM274.964 156.822L265.372 166.404L264.893 165.925L274.486 156.343L274.964 156.822ZM123.438 165.799L111 170.924L110.742 170.298L123.18 165.173L123.438 165.799ZM350.692 170.924L338.324 165.799L338.583 165.174L350.952 170.299L350.692 170.924ZM230.618 179.322V165.734H231.295V179.322H230.618ZM96.9247 175.992V166.165H97.6017V175.713L98.3039 175.423L98.5618 176.049L97.6017 176.445V179.58H96.9247V176.724L86.1236 181.174L85.8657 180.548L96.9247 175.992ZM365.516 176.333V166.165H366.193V176.614L375.689 180.549L375.43 181.174L366.193 177.347V179.58H365.516V177.066L363.061 176.049L363.32 175.424L365.516 176.333ZM216.931 185.569L207.338 175.987L207.817 175.508L217.409 185.09L216.931 185.569ZM255.779 175.987L246.187 185.569L245.708 185.09L255.301 175.508L255.779 175.987ZM73.6854 186.299L61.2472 191.424L60.9893 190.798L73.4275 185.673L73.6854 186.299ZM400.167 191.424L387.799 186.299L388.058 185.673L400.426 190.798L400.167 191.424ZM230.618 198.285V192.909H231.295V198.46H232.324L236.116 194.672L236.594 195.151L233.282 198.46H237.377V199.137H232.604L232.038 199.703L236.594 204.255L236.116 204.733L231.559 200.181L231.295 200.445V206.497H230.618V201.121L227.002 204.733L226.523 204.255L230.618 200.164V199.242L230.513 199.137H223.934V198.46H229.836L226.523 195.151L227.002 194.672L230.618 198.285ZM231.471 199.137L231.559 199.224L231.646 199.137H231.471ZM96.9247 198.46V192.995H97.6017V198.46H102.952V199.137H97.6017V206.41H96.9247V199.137H89.5096V198.46H96.9247ZM365.516 198.46V192.995H366.193V198.46H371.801V199.137H366.193V206.41H365.516V199.137H358.359V198.46H365.516ZM43.2702 199.137L47.4144 203.339L46.9324 203.814L41.8662 198.677L48.5511 195.923L48.809 196.549L44.1709 198.46H49.1822V199.137H43.2702ZM417.149 198.46L412.536 196.549L412.795 195.923L419.443 198.678L414.394 203.814L413.911 203.339L418.042 199.137H412.129V198.46H417.149ZM76.0671 199.137H62.6247V198.46H76.0671V199.137ZM129.837 199.137H116.395V198.46H129.837V199.137ZM156.722 199.137H143.279V198.46H156.722V199.137ZM183.607 199.137H170.164V198.46H183.607V199.137ZM210.492 199.137H197.049V198.46H210.492V199.137ZM264.262 199.137H250.819V198.46H264.262V199.137ZM291.147 199.137H277.704V198.46H291.147V199.137ZM318.031 199.137H304.589V198.46H318.031V199.137ZM344.916 199.137H331.474V198.46H344.916V199.137ZM398.686 199.137H385.244V198.46H398.686V199.137ZM65.7819 222.927L56.3571 213.371L56.8391 212.896L66.2639 222.452L65.7819 222.927ZM404.999 213.37L395.605 222.927L395.122 222.452L404.517 212.896L404.999 213.37ZM217.409 214.316L207.817 223.898L207.338 223.419L216.931 213.837L217.409 214.316ZM255.301 223.898L245.708 214.316L246.187 213.837L255.779 223.419L255.301 223.898ZM96.9247 233.241V219.826H97.6017V233.241H96.9247ZM365.516 233.241V219.826H366.193V233.241H365.516ZM230.618 233.672V220.084H231.295V233.672H230.618ZM84.6315 242.04L75.2067 232.484L75.6887 232.008L85.1135 241.565L84.6315 242.04ZM386.21 232.483L376.815 242.04L376.333 241.565L385.727 232.009L386.21 232.483ZM198.224 233.48L188.632 243.063L188.153 242.584L197.746 233.002L198.224 233.48ZM274.486 243.063L264.893 233.48L265.372 233.002L274.964 242.584L274.486 243.063ZM96.9247 253.541V246.656H97.6017V254.228L103.963 260.678L103.481 261.153L97.6017 255.192V260.072H96.9247V254.505L94.0563 251.597L94.5382 251.121L96.9247 253.541ZM365.516 252.568V246.656H366.193V251.88L366.938 251.122L367.421 251.596L366.193 252.845V260.072H365.516V253.534L358.026 261.153L357.543 260.678L365.516 252.568ZM230.618 260.847V247.259H231.295V260.847H230.618ZM293.671 262.227L284.078 252.645L284.557 252.166L294.149 261.748L293.671 262.227ZM179.039 252.645L169.446 262.227L168.968 261.748L178.561 252.166L179.039 252.645ZM122.331 280.266L112.906 270.71L113.388 270.234L122.813 279.791L122.331 280.266ZM348.631 270.709L339.237 280.266L338.754 279.791L348.149 270.235L348.631 270.709ZM312.856 281.392L303.264 271.81L303.742 271.331L313.335 280.913L312.856 281.392ZM159.854 271.81L150.261 281.392L149.783 280.913L159.375 271.331L159.854 271.81ZM96.9247 286.902V273.487H97.6017V286.902H96.9247ZM365.516 286.902V273.487H366.193V286.902H365.516ZM230.618 288.022V274.434H231.295V288.022H230.618ZM136.276 294.406L131.755 289.823L132.237 289.347L136.755 293.928L140.19 290.495L140.669 290.974L137.23 294.41L141.662 298.904L141.18 299.379L136.751 294.888L131.076 300.557L130.598 300.078L136.276 294.406ZM325.607 294.13L320.447 299.379L319.965 298.904L325.128 293.651L322.449 290.974L322.927 290.495L325.603 293.169L329.359 289.348L329.842 289.822L326.082 293.647L332.52 300.078L332.041 300.557L325.607 294.13ZM96.9247 313.733V300.317H97.6017V313.733H96.9247ZM365.516 313.733V300.317H366.193V313.733H365.516ZM230.618 315.197V301.609H231.295V315.197H230.618ZM160.03 318.492L150.605 308.936L151.087 308.46L160.512 318.017L160.03 318.492ZM311.053 308.935L301.658 318.492L301.175 318.017L310.57 308.461L311.053 308.935ZM351.226 319.721L341.634 310.139L342.112 309.66L351.705 319.242L351.226 319.721ZM121.484 310.139L111.891 319.721L111.413 319.242L121.005 309.66L121.484 310.139ZM96.9247 327.148H97.6017V333.039L101.82 328.825L102.299 329.304L98.081 333.517H103.978V334.194H96.9247V327.148ZM365.516 333.039V327.148H366.193V334.194H359.14V333.517H365.037L360.819 329.304L361.297 328.825L365.516 333.039ZM174.847 333.517L169.454 328.049L169.936 327.573L175.798 333.517H184.555V334.194H176.466L179.361 337.13L178.879 337.605L175.515 334.194H171.126V333.517H174.847ZM286.222 334.194L282.869 337.605L282.386 337.13L285.272 334.194H278.562V333.517H285.938L291.78 327.574L292.263 328.048L286.887 333.517H291.992V334.194H286.222ZM230.618 333.517V328.784H231.295V333.517H238.274V334.194H231.295V342.372H230.618V334.194H224.844V333.517H230.618ZM130.837 334.194H117.408V333.517H130.837V334.194ZM157.696 334.194H144.267V333.517H157.696V334.194ZM211.414 334.194H197.985V333.517H211.414V334.194ZM265.133 334.194H251.703V333.517H265.133V334.194ZM318.851 334.194H305.421V333.517H318.851V334.194ZM345.71 334.194H332.28V333.517H345.71V334.194ZM197.729 356.718L188.304 347.162L188.786 346.686L198.211 356.243L197.729 356.718ZM273.474 347.161L264.079 356.718L263.597 356.243L272.991 346.687L273.474 347.161ZM230.618 369.547V355.959H231.295V369.547H230.618ZM216.578 375.831L207.154 366.275L207.636 365.799L217.06 375.356L216.578 375.831ZM254.685 366.274L245.29 375.831L244.807 375.356L254.202 365.8L254.685 366.274ZM230.618 389.103V383.135H231.295V389.101L235.412 384.913L235.895 385.387L230.957 390.411L226.003 385.388L226.485 384.912L230.618 389.103Z" fill="#062A85"/>
<circle r="9.47742" transform="matrix(-1 0 0 1 231.151 9.47742)" fill="#062A85"/>
<circle r="9.47742" transform="matrix(-1 0 0 1 231.151 389.928)" fill="#062A85"/>
<circle r="9.47742" transform="matrix(-1 0 0 1 366.541 333.063)" fill="#062A85"/>
<circle r="9.47742" transform="matrix(-1 0 0 1 419.344 199.026)" fill="#062A85"/>
<circle r="9.47742" transform="matrix(-1 0 0 1 363.834 64.9882)" fill="#062A85"/>
<circle r="9.47742" transform="matrix(-1 0 0 1 99.8195 333.063)" fill="#062A85"/>
<circle r="9.47742" transform="matrix(-1 0 0 1 42.9552 199.026)" fill="#062A85"/>
<circle r="9.47742" transform="matrix(-1 0 0 1 97.1124 64.9882)" fill="#062A85"/>
<path d="M125.159 121.921L230.684 56.2817L336.441 121.921L230.916 201.244L125.159 121.921Z" fill="#3761CB"/>
<path d="M230.916 321.854V201.245L336.441 121.922L330.875 235.573L230.916 321.854Z" fill="#4971DA"/>
<path d="M130.725 235.573L125.159 121.922L230.916 201.245V321.854L130.725 235.573Z" fill="#062A85"/>
</svg>
