<svg width="112" height="117" viewBox="0 0 112 117" fill="none" xmlns="http://www.w3.org/2000/svg">
<path d="M20.992 98.4642L19.873 95.1777L73.129 111.806L73.8995 115.295L20.992 98.4642Z" fill="#A0E3DD"/>
<path d="M73.1298 111.806L110.271 72.117L110.689 75.5929L73.9002 115.295L73.1298 111.806Z" fill="#1BBEAD"/>
<path d="M19.874 95.1775L58.1861 60.4771L110.271 72.117L73.13 111.806L19.874 95.1775Z" fill="#64DDD1"/>
<path d="M16.7935 85.8065L15.6328 82.3838L69.8552 98.3675L70.6685 102.051L16.7935 85.8065Z" fill="#2A56C7"/>
<path d="M69.8554 98.3676L108.055 58.7567L108.476 62.3891L70.6688 102.051L69.8554 98.3676Z" fill="#062A85"/>
<path d="M15.6335 82.3838L55.0043 47.7808L108.056 58.7567L69.8559 98.3675L15.6335 82.3838Z" fill="#4971DA"/>
<path d="M11.917 72.6822L10.7373 69.2173L66.8841 86.7481L67.6964 90.4263L11.917 72.6822Z" fill="#A0E3DD"/>
<path d="M66.8846 86.7479L106.042 44.9048L106.483 48.5694L67.6969 90.4261L66.8846 86.7479Z" fill="#1BBEAD"/>
<path d="M10.7379 69.2175L51.1297 32.6334L106.042 44.9052L66.8847 86.7483L10.7379 69.2175Z" fill="#64DDD1"/>
<path d="M7.59966 58.7467L6.37598 55.1382L63.5416 71.9895L64.3991 75.8732L7.59966 58.7467Z" fill="#2A56C7"/>
<path d="M63.5418 71.9895L103.815 30.2285L104.259 34.0581L64.3993 75.8732L63.5418 71.9895Z" fill="#062A85"/>
<path d="M6.37622 55.1381L47.8841 18.6568L103.815 30.2284L63.5419 71.9894L6.37622 55.1381Z" fill="#4971DA"/>
<path d="M1.93713 42.8707L0.706055 39.2549L59.2978 57.5491L60.1455 61.3875L1.93713 42.8707Z" fill="#A0E3DD"/>
<path d="M59.2973 57.5489L100.16 13.8837L100.62 17.7079L60.145 61.3873L59.2973 57.5489Z" fill="#1BBEAD"/>
<path d="M0.705867 39.2548L42.8565 1.07766L100.16 13.8838L59.2976 57.549L0.705867 39.2548Z" fill="#64DDD1"/>
</svg>
