<svg width="801" height="426" viewBox="0 0 801 426" fill="none" xmlns="http://www.w3.org/2000/svg">
<path d="M556.936 218.031L401.932 261.764L436.007 50.705L594.656 25.3525L556.936 218.031Z" fill="#A0E3DD"/>
<path d="M727.154 287.274L578.332 342.099L401.932 261.763L556.936 218.03L727.154 287.274Z" fill="#64DDD1"/>
<path d="M401.933 261.763L382.597 274.281L422.219 22.4995L436.008 50.7041L401.933 261.763Z" fill="#1BBEAD"/>
<path d="M578.333 342.099L593.072 372.205L382.597 274.281L401.933 261.763L578.333 342.099Z" fill="#1BBEAD"/>
<path d="M422.219 22.5003L581.185 0L800.536 67.8179L650.604 100.618L422.219 22.5003Z" fill="#64DDD1"/>
<path d="M593.072 372.207L650.604 100.619L800.537 67.8193L740.31 314.372L593.072 372.207Z" fill="#A0E3DD"/>
<path d="M436.007 50.7041L422.219 22.4995L650.604 100.617L624.928 117.413L436.007 50.7041Z" fill="#1BBEAD"/>
<path d="M624.928 117.414L650.604 100.618L593.072 372.206L578.332 342.1L624.928 117.414Z" fill="#1BBEAD"/>
<path d="M349.313 263.982L194.943 306.448L213.328 144.35L371.66 114.086L349.313 263.982Z" fill="#4971DA"/>
<path d="M470.559 320.708L318.091 371.255L194.943 306.447L349.313 263.982L470.559 320.708Z" fill="#2A56C7"/>
<path d="M194.943 306.448L172.279 322.61L195.736 106.163L213.328 144.35L194.943 306.448Z" fill="#062A85"/>
<path d="M318.091 371.256L336.634 411.503L172.279 322.61L194.943 306.448L318.091 371.256Z" fill="#062A85"/>
<path d="M195.736 106.163L355.019 79.3843L527.616 144.825L371.502 180.794L195.736 106.163Z" fill="#2A56C7"/>
<path d="M336.634 411.503L371.502 180.795L527.615 144.826L488.151 357.312L336.634 411.503Z" fill="#4971DA"/>
<path d="M213.329 144.35L195.736 106.163L371.502 180.794L342.816 201.235L213.329 144.35Z" fill="#062A85"/>
<path d="M342.815 201.234L371.502 180.794L336.634 411.501L318.091 371.254L342.815 201.234Z" fill="#062A85"/>
<path d="M11.0947 195.53L145.336 169.068L262.619 224.052L128.219 256.376L11.0947 195.53Z" fill="#64DDD1"/>
<path d="M111.895 425.603L128.219 256.375L262.619 224.051L242.332 383.296L111.895 425.603Z" fill="#A0E3DD"/>
<path d="M0 356.993L11.0943 195.529L128.219 256.375L111.894 425.603L0 356.993Z" fill="#1BBEAD"/>
</svg>
