<svg width="87" height="92" viewBox="0 0 87 92" fill="none" xmlns="http://www.w3.org/2000/svg">
<path d="M31.0718 45.1558L10.0474 77.3136L7.3877 30.2585L30.1852 1.22363L31.0718 45.1558Z" fill="#64DDD1"/>
<path d="M7.38808 30.2587L0 28.6973L23.5152 0L30.1856 1.22385L7.38808 30.2587Z" fill="#1BBEAD"/>
<path d="M10.0478 77.3138L3.20854 75.5835L0 28.6973L7.38808 30.2587L10.0478 77.3138Z" fill="#A0E3DD"/>
<path d="M43.7379 47.9412L24.0222 80.8587L22.418 33.466L43.7379 3.75586V47.9412Z" fill="#4971DA"/>
<path d="M22.4173 33.4659L14.8604 31.8622L36.9402 2.48975L43.7372 3.7558L22.4173 33.4659Z" fill="#062A85"/>
<path d="M24.0216 80.8587L17.0134 79.0862L14.8604 31.8623L22.4173 33.466L24.0216 80.8587Z" fill="#2A56C7"/>
<path d="M56.698 50.8113L38.3755 84.4462L37.9111 36.7581L57.6267 6.33057L56.698 50.8113Z" fill="#64DDD1"/>
<path d="M37.9114 36.7578L30.1855 35.1119L50.7033 5.02197L57.627 6.33023L37.9114 36.7578Z" fill="#1BBEAD"/>
<path d="M38.3758 84.4458L31.1988 82.6311L30.1855 35.1118L37.9114 36.7577L38.3758 84.4458Z" fill="#A0E3DD"/>
<path d="M70.1234 53.7654L53.2363 88.2021L53.9962 40.1764L72.0654 8.98926L70.1234 53.7654Z" fill="#4971DA"/>
<path d="M53.9965 40.1763L46.0596 38.4882L64.9308 7.63867L72.0656 8.98913L53.9965 40.1763Z" fill="#062A85"/>
<path d="M53.2365 88.2021L45.8906 86.3452L46.0595 38.4883L53.9964 40.1764L53.2365 88.2021Z" fill="#2A56C7"/>
<path d="M83.6328 56.7617L68.2656 92.0003L70.2921 43.6792L86.5881 11.6479L83.6328 56.7617Z" fill="#64DDD1"/>
<path d="M70.2925 43.679L62.1445 41.9066L79.2849 10.2974L86.5885 11.6478L70.2925 43.679Z" fill="#1BBEAD"/>
<path d="M68.2659 91.9999L60.709 90.1008L62.1444 41.9062L70.2924 43.6787L68.2659 91.9999Z" fill="#A0E3DD"/>
</svg>
