<svg width="167" height="191" viewBox="0 0 167 191" fill="none" xmlns="http://www.w3.org/2000/svg">
<path d="M0 0H139.926V172.983H0V0Z" fill="#062A85"/>
<path d="M146.285 47.8867L142.249 30.0207L151.966 17.0913L155.727 34.9181L146.285 47.8867Z" fill="#64DDD1"/>
<path d="M127.127 44.6347L122.66 26.8862L142.25 30.0206L146.286 47.8866L127.127 44.6347Z" fill="#1BBEAD"/>
<path d="M122.66 26.8863L132.651 14.1528L151.967 17.0913L142.25 30.0207L122.66 26.8863Z" fill="#A0E3DD"/>
<path d="M51.2102 118.696L35.8125 121.556L48.1542 107.059L63.3951 104.591L51.2102 118.696Z" fill="#1BBEAD"/>
<path d="M48.1528 107.059L35.6152 89.3892L51.1305 87.4302L63.3937 104.591L48.1528 107.059Z" fill="#64DDD1"/>
<path d="M35.812 121.556L23.5879 104.042L35.6161 89.3892L48.1537 107.059L35.812 121.556Z" fill="#A0E3DD"/>
<path d="M80.75 190.146L89.252 172.79L110.135 168.872L101.476 185.876L80.75 190.146Z" fill="#A0E3DD"/>
<path d="M98.028 150.966L110.135 168.871L89.2517 172.789L77.2627 154.336L98.028 150.966Z" fill="#64DDD1"/>
<path d="M69.1924 171.732L77.2634 154.336L89.2525 172.79L80.7504 190.146L69.1924 171.732Z" fill="#1BBEAD"/>
<path d="M92.8037 99.5748L114.235 85.0391L132.297 94.9124L110.983 108.9L92.8037 99.5748Z" fill="#1BBEAD"/>
<path d="M88.0635 77.6732L108.868 62.9023L114.236 85.039L92.8042 99.5747L88.0635 77.6732Z" fill="#64DDD1"/>
<path d="M108.869 62.9023L126.696 73.1283L132.299 94.9123L114.237 85.039L108.869 62.9023Z" fill="#A0E3DD"/>
<path d="M129.936 123.764L149.605 113.225L139.614 128.936L119.515 139.436L129.936 123.764Z" fill="#64DDD1"/>
<path d="M149.603 113.225L166.999 134.656L157.635 150.994L139.612 128.936L149.603 113.225Z" fill="#1BBEAD"/>
<path d="M119.515 139.436L139.614 128.936L157.637 150.994L137.146 160.907L119.515 139.436Z" fill="#A0E3DD"/>
<rect x="36.1279" y="15.7256" width="38.8789" height="2.44167" fill="#FAFCFF"/>
<rect x="14.1533" y="15.7256" width="17.843" height="31.366" fill="#FAFCFF"/>
<rect x="36.1279" y="30.564" width="38.8789" height="2.44167" fill="#FAFCFF"/>
<rect x="36.1279" y="45.4019" width="38.8789" height="2.44167" fill="#FAFCFF"/>
<rect x="36.1279" y="60.2393" width="38.8789" height="2.44167" fill="#FAFCFF"/>
<rect x="36.1279" y="23.0513" width="38.8789" height="2.44167" fill="#FAFCFF"/>
<rect x="36.1279" y="37.8882" width="38.8789" height="2.44167" fill="#FAFCFF"/>
<rect x="36.1279" y="52.7266" width="38.8789" height="2.44167" fill="#FAFCFF"/>
</svg>
