<svg width="105" height="124" viewBox="0 0 105 124" fill="none" xmlns="http://www.w3.org/2000/svg">
<path d="M38.1085 5.27441L87.7125 17.1981L57.3982 56.3898L10.4165 53.669L38.1085 5.27441Z" fill="#062A85"/>
<path d="M42.3359 18.9036L92.6354 29.1487L57.5593 60.5235L11.0508 57.7605L42.3359 18.9036Z" fill="#2A56C7"/>
<path fill-rule="evenodd" clip-rule="evenodd" d="M58.5435 63.542L97.3718 41.8982L11.3576 61.5766L58.5435 63.542ZM46.4749 34.2311L11.3576 61.5765L97.3718 41.898L46.4749 34.2311Z" fill="#4971DA"/>
<path d="M8.62648 70.6756L56.2275 71.8987L89.0367 110.046L35.9789 117.757L8.62648 70.6756Z" fill="#64DDD1"/>
<path fill-rule="evenodd" clip-rule="evenodd" d="M42.1374 101.748L95.1129 96.5503L57.7918 67.826L10.0923 66.376L42.1374 101.748Z" fill="#1BBEAD"/>
<path fill-rule="evenodd" clip-rule="evenodd" d="M46.195 84.2738L98.8779 82.5142L58.2666 65.1309L10.6107 63.1889L46.195 84.2738Z" fill="#A0E3DD"/>
</svg>
