<svg width="407" height="432" viewBox="0 0 407 432" fill="none" xmlns="http://www.w3.org/2000/svg">
<path fill-rule="evenodd" clip-rule="evenodd" d="M184.255 154.062L184.038 153.366L183.812 152.645L184.724 153.615L226.266 168.69L240.183 211.614L197.69 195.807L184.255 154.062Z" fill="#D8D8D8"/>
<path fill-rule="evenodd" clip-rule="evenodd" d="M275.513 178.132L232.887 162.16L197.42 196.065L240.103 211.936L275.513 178.132Z" fill="#062A85"/>
<path fill-rule="evenodd" clip-rule="evenodd" d="M218.944 118.816L232.895 162.153L197.421 196.065L183.487 152.712L218.944 118.816Z" fill="#4971DA"/>
<path d="M219.109 118.886L218.942 118.824L232.684 162.355L275.513 178.132L261.179 135.115L219.109 118.886Z" fill="#2A56C7"/>
<path fill-rule="evenodd" clip-rule="evenodd" d="M130.062 129.738L129.846 129.038L129.624 128.316L130.535 129.285L172.237 144.208L185.995 187.284L143.341 171.631L130.062 129.738Z" fill="#D8D8D8"/>
<path fill-rule="evenodd" clip-rule="evenodd" d="M221.719 153.425L178.932 137.606L143.067 171.892L185.911 187.608L221.719 153.425Z" fill="#062A85"/>
<path fill-rule="evenodd" clip-rule="evenodd" d="M165.151 94.1079L178.941 137.599L143.068 171.892L129.296 128.384L165.151 94.1079Z" fill="#4971DA"/>
<path d="M165.316 94.1773L165.148 94.1159L178.727 137.803L221.719 153.425L207.542 110.257L165.316 94.1773Z" fill="#2A56C7"/>
<path fill-rule="evenodd" clip-rule="evenodd" d="M15.6719 49.9792L15.4567 49.2799L15.2341 48.557L16.1456 49.5264L57.8474 64.4497L71.6053 107.525L28.951 91.8727L15.6719 49.9792Z" fill="#D8D8D8"/>
<path fill-rule="evenodd" clip-rule="evenodd" d="M107.329 73.6663L64.5427 57.8479L28.6777 92.1333L71.5214 107.85L107.329 73.6663Z" fill="#062A85"/>
<path fill-rule="evenodd" clip-rule="evenodd" d="M50.7617 14.3494L64.5514 57.8402L28.6785 92.1332L14.9064 48.6255L50.7617 14.3494Z" fill="#4971DA"/>
<path d="M50.9263 14.4187L50.7587 14.3574L64.3375 58.0442L107.329 73.6662L93.1527 30.4981L50.9263 14.4187Z" fill="#2A56C7"/>
<path fill-rule="evenodd" clip-rule="evenodd" d="M201.799 210.569L201.584 209.87L201.361 209.147L202.273 210.116L243.974 225.04L257.732 268.115L215.078 252.463L201.799 210.569Z" fill="#D8D8D8"/>
<path fill-rule="evenodd" clip-rule="evenodd" d="M293.456 234.256L250.67 218.438L214.805 252.723L257.648 268.44L293.456 234.256Z" fill="#062A85"/>
<path fill-rule="evenodd" clip-rule="evenodd" d="M236.889 174.939L250.678 218.43L214.805 252.723L201.033 209.215L236.889 174.939Z" fill="#4971DA"/>
<path d="M237.053 175.009L236.886 174.947L250.464 218.634L293.456 234.256L279.28 191.088L237.053 175.009Z" fill="#2A56C7"/>
<path fill-rule="evenodd" clip-rule="evenodd" d="M146.445 187.397L146.23 186.698L146.008 185.975L146.919 186.944L188.621 201.867L202.379 244.943L159.724 229.29L146.445 187.397Z" fill="#D8D8D8"/>
<path fill-rule="evenodd" clip-rule="evenodd" d="M238.103 211.084L195.316 195.266L159.451 229.551L202.295 245.268L238.103 211.084Z" fill="#062A85"/>
<path fill-rule="evenodd" clip-rule="evenodd" d="M181.535 151.767L195.325 195.258L159.452 229.551L145.68 186.043L181.535 151.767Z" fill="#4971DA"/>
<path d="M181.7 151.836L181.532 151.775L195.111 195.462L238.103 211.084L223.926 167.916L181.7 151.836Z" fill="#2A56C7"/>
<path fill-rule="evenodd" clip-rule="evenodd" d="M91.0596 165.638L90.8443 164.939L90.6218 164.216L91.5332 165.186L133.235 180.109L146.993 223.185L104.339 207.532L91.0596 165.638Z" fill="#D8D8D8"/>
<path fill-rule="evenodd" clip-rule="evenodd" d="M182.717 189.325L139.93 173.507L104.065 207.793L146.909 223.509L182.717 189.325Z" fill="#062A85"/>
<path fill-rule="evenodd" clip-rule="evenodd" d="M126.149 130.009L139.939 173.499L104.066 207.792L90.2941 164.285L126.149 130.009Z" fill="#4971DA"/>
<path d="M126.314 130.078L126.146 130.017L139.725 173.703L182.717 189.325L168.54 146.157L126.314 130.078Z" fill="#2A56C7"/>
<path fill-rule="evenodd" clip-rule="evenodd" d="M299.874 359.951L299.659 359.252L299.436 358.529L300.348 359.498L342.05 374.422L355.807 417.497L313.153 401.845L299.874 359.951Z" fill="#D8D8D8"/>
<path fill-rule="evenodd" clip-rule="evenodd" d="M391.531 383.638L348.745 367.82L312.88 402.105L355.724 417.822L391.531 383.638Z" fill="#062A85"/>
<path fill-rule="evenodd" clip-rule="evenodd" d="M334.964 324.321L348.754 367.812L312.881 402.105L299.109 358.597L334.964 324.321Z" fill="#4971DA"/>
<path d="M335.128 324.391L334.961 324.329L348.54 368.016L391.531 383.638L377.355 340.47L335.128 324.391Z" fill="#2A56C7"/>
<path fill-rule="evenodd" clip-rule="evenodd" d="M164.211 246.502L163.996 245.802L163.773 245.079L164.685 246.049L206.387 260.972L220.144 304.048L177.49 288.395L164.211 246.502Z" fill="#D8D8D8"/>
<path fill-rule="evenodd" clip-rule="evenodd" d="M255.868 270.189L213.082 254.37L177.217 288.656L220.061 304.372L255.868 270.189Z" fill="#062A85"/>
<path fill-rule="evenodd" clip-rule="evenodd" d="M199.301 210.872L213.09 254.363L177.218 288.656L163.446 245.148L199.301 210.872Z" fill="#4971DA"/>
<path d="M199.465 210.941L199.298 210.88L212.877 254.567L255.868 270.189L241.692 227.021L199.465 210.941Z" fill="#2A56C7"/>
<path fill-rule="evenodd" clip-rule="evenodd" d="M109.134 224.02L108.919 223.321L108.696 222.598L109.607 223.567L151.309 238.491L165.067 281.566L122.413 265.914L109.134 224.02Z" fill="#D8D8D8"/>
<path fill-rule="evenodd" clip-rule="evenodd" d="M200.791 247.707L158.005 231.889L122.14 266.174L164.983 281.891L200.791 247.707Z" fill="#062A85"/>
<path fill-rule="evenodd" clip-rule="evenodd" d="M144.224 188.39L158.013 231.881L122.14 266.174L108.368 222.666L144.224 188.39Z" fill="#4971DA"/>
<path d="M144.388 188.46L144.221 188.398L157.799 232.085L200.791 247.707L186.615 204.539L144.388 188.46Z" fill="#2A56C7"/>
</svg>
