<?xml version="1.0" encoding="UTF-8" standalone="no"?>
<svg
   xmlns:dc="http://purl.org/dc/elements/1.1/"
   xmlns:cc="http://creativecommons.org/ns#"
   xmlns:rdf="http://www.w3.org/1999/02/22-rdf-syntax-ns#"
   xmlns:svg="http://www.w3.org/2000/svg"
   xmlns="http://www.w3.org/2000/svg"
   id="svg8"
   version="1.1"
   viewBox="0 0 55.06821 39.826931"
   height="39.826931mm"
   width="55.068211mm">
  <defs
     id="defs2">
    <linearGradient
       id="paint0_linear"
       x1="200.536"
       y1="-34.2117"
       x2="84.208099"
       y2="121.389"
       gradientUnits="userSpaceOnUse">
      <stop
         stop-color="#E0EAF2"
         id="stop855" />
      <stop
         offset="1"
         stop-color="#93B8D4"
         id="stop857" />
    </linearGradient>
  </defs>
  <metadata
     id="metadata5">
    <rdf:RDF>
      <cc:Work
         rdf:about="">
        <dc:format>image/svg+xml</dc:format>
        <dc:type
           rdf:resource="http://purl.org/dc/dcmitype/StillImage" />
        <dc:title></dc:title>
      </cc:Work>
    </rdf:RDF>
  </metadata>
  <g
     transform="translate(201.50991,-412.73989)"
     id="layer1">
    <g
       transform="translate(180.29187,-66.834982)"
       id="g1157">
      <path
         style="fill:#1bbead;stroke-width:0.26458332"
         d="m -347.86214,488.38311 -5.41734,4.0222 -1.38377,-6.78154 5.63112,-3.9288 z"
         id="path910" />
      <path
         style="fill:#40e1d1;stroke-width:0.26458332"
         d="m -358.93919,489.99998 -1.54344,-6.65586 5.81964,2.27965 1.38377,6.78154 z"
         id="path912" />
      <path
         style="fill:#7feee2;stroke-width:0.26458332"
         d="m -349.03213,481.69524 -5.63112,3.92853 -5.8197,-2.27938 5.64719,-3.76952 z"
         id="path914" />
      <path
         style="fill:#1bbead;stroke-width:0.26458332"
         d="m -337.79157,492.34604 -5.36866,4.33546 -1.13638,-6.97336 5.57715,-4.2582 z"
         id="path916" />
      <path
         style="fill:#40e1d1;stroke-width:0.26458332"
         d="m -349.39064,494.0444 -1.29593,-6.84742 6.38996,2.51143 1.13638,6.97309 z"
         id="path918" />
      <path
         style="fill:#7feee2;stroke-width:0.26458332"
         d="m -338.71946,485.4502 -5.57715,4.25794 -6.39022,-2.51142 5.60414,-4.06585 z"
         id="path920" />
      <path
         style="fill:#1bbead;stroke-width:0.26458332"
         d="m -356.99741,495.153 -5.97291,4.44395 -1.80637,-6.89796 6.23623,-4.36642 z"
         id="path922" />
      <path
         style="fill:#40e1d1;stroke-width:0.26458332"
         d="m -368.64606,496.8675 -1.93291,-6.78285 5.80236,2.61434 1.80637,6.89796 z"
         id="path924" />
      <path
         style="fill:#7feee2;stroke-width:0.26458332"
         d="m -358.54019,488.33231 -6.2361,4.36642 -5.80237,-2.61435 6.2302,-4.16322 z"
         id="path926" />
      <path
         style="fill:#1bbead;stroke-width:0.26458332"
         d="m -326.73357,496.69526 -5.28717,4.69239 -0.7956,-7.1591 5.4901,-4.63153 z"
         id="path928" />
      <path
         style="fill:#40e1d1;stroke-width:0.26458332"
         d="m -338.88774,498.4857 -1.01547,-7.04983 7.08687,2.79294 0.79533,7.1591 z"
         id="path930" />
      <path
         style="fill:#7feee2;stroke-width:0.26458332"
         d="m -327.32624,489.59702 -5.4901,4.63153 -7.0866,-2.79268 5.5499,-4.39552 z"
         id="path932" />
      <path
         style="fill:#1bbead;stroke-width:0.26458332"
         d="m -346.85672,499.65939 -5.96292,4.80615 -1.5367,-7.07839 6.22062,-4.74531 z"
         id="path934" />
      <path
         style="fill:#40e1d1;stroke-width:0.26458332"
         d="m -359.0818,501.45485 -1.69656,-6.95272 6.42202,2.88475 1.53697,7.0784 z"
         id="path936" />
      <path
         style="fill:#7feee2;stroke-width:0.26458332"
         d="m -348.13598,492.64184 -6.22062,4.74504 -6.42202,-2.88475 6.22543,-4.50903 z"
         id="path938" />
      <path
         style="fill:#1bbead;stroke-width:0.26458332"
         d="m -367.10039,502.64468 -6.63826,4.91993 -2.29476,-6.99241 6.95105,-4.85881 z"
         id="path940" />
      <path
         style="fill:#40e1d1;stroke-width:0.26458332"
         d="m -379.39148,504.46237 -2.4103,-6.89928 5.7685,3.00964 2.29476,6.99214 z"
         id="path942" />
      <path
         style="fill:#7feee2;stroke-width:0.26458332"
         d="m -369.0822,495.71339 -6.95105,4.85881 -5.7685,-3.00937 6.92303,-4.61195 z"
         id="path944" />
      <path
         style="fill:#1bbead;stroke-width:0.26458332"
         d="m -335.663,504.64043 -5.89227,5.23981 -1.20173,-7.2808 6.15024,-5.17896 z"
         id="path946" />
      <path
         style="fill:#40e1d1;stroke-width:0.26458332"
         d="m -348.50878,506.54993 -1.42161,-7.17153 7.17365,3.2213 1.20147,7.28081 z"
         id="path948" />
      <path
         style="fill:#7feee2;stroke-width:0.26458332"
         d="m -336.60676,497.42048 -6.15024,5.17896 -7.17339,-3.2213 6.20448,-4.90432 z"
         id="path950" />
      <path
         style="fill:#1bbead;stroke-width:0.26458332"
         d="m -356.92809,507.79929 -6.65588,5.36443 -2.02533,-7.17285 6.96301,-5.31972 z"
         id="path952" />
      <path
         style="fill:#40e1d1;stroke-width:0.26458332"
         d="m -369.85113,509.69768 -2.20676,-7.05803 6.44845,3.35122 2.02531,7.17285 z"
         id="path954" />
      <path
         style="fill:#7feee2;stroke-width:0.26458332"
         d="m -358.64629,500.67062 -6.96317,5.31998 -6.44843,-3.35121 6.96791,-5.02894 z"
         id="path956" />
      <path
         style="fill:#1bbead;stroke-width:0.26458332"
         d="m -345.63779,513.51562 -6.62966,5.88592 -1.70101,-7.3533 6.95352,-5.84677 z"
         id="path958" />
      <path
         style="fill:#40e1d1;stroke-width:0.26458332"
         d="m -359.26356,515.55529 -1.90971,-7.26599 7.20508,3.7592 1.701,7.3533 z"
         id="path960" />
      <path
         style="fill:#7feee2;stroke-width:0.26458332"
         d="m -347.01494,506.20174 -6.95325,5.84676 -7.20522,-3.7592 6.9581,-5.50095 z"
         id="path962" />
    </g>
  </g>
</svg>
