<svg width="106" height="105" viewBox="0 0 106 105" fill="none" xmlns="http://www.w3.org/2000/svg">
<path d="M0 0H78.6135V97.1853H0V0Z" fill="#062A85"/>
<path d="M3.69336 3.48193H82.3069V100.667H3.69336V3.48193Z" fill="#3761CB"/>
<path d="M7.38672 6.96436H86.0003V104.15H7.38672V6.96436Z" fill="#4971DA"/>
<path fill-rule="evenodd" clip-rule="evenodd" d="M39.7749 73.8845L31.5671 57.7593L29.5615 58.7801L38.7099 76.7533C38.897 77.121 39.2705 77.3568 39.683 77.3677C40.0955 77.3786 40.4808 77.1628 40.6871 76.8054L63.2118 37.7915L61.2629 36.6663L39.7749 73.8845Z" fill="white"/>
<path d="M65.6367 59.4424L85.6122 52L105.707 59.4424L85.7315 68.5166L65.6367 59.4424Z" fill="#64DDD1"/>
<path d="M85.6924 94.2665L85.7322 68.5166L105.708 59.4424L104.196 83.5606L85.6924 94.2665Z" fill="#A0E3DD"/>
<path d="M67.0692 83.5606L65.6367 59.4424L85.7315 68.5166L85.6917 94.2665L67.0692 83.5606Z" fill="#1BBEAD"/>
</svg>
