<svg width="440" height="270" viewBox="0 0 440 270" fill="none" xmlns="http://www.w3.org/2000/svg">
<path d="M389.869 111.068L425.515 121.606L348.707 184.83L313.644 177.431L389.869 111.068Z" fill="#64DDD1"/>
<path d="M403.634 82.1914L389.869 111.068L313.643 177.431L295.215 178.687L403.634 82.1914Z" fill="#A0E3DD"/>
<path d="M313.644 177.432L348.707 184.83L417.938 241.687L380.946 235.499L313.644 177.432Z" fill="#64DDD1"/>
<path d="M295.215 178.687L313.643 177.432L380.946 235.499L391.034 264.69L295.215 178.687Z" fill="#A0E3DD"/>
<path d="M428.475 269.891L391.035 264.69L403.635 82.1914L439.147 93.8946L428.475 269.891Z" fill="#1BBEAD"/>
<path d="M391.035 264.69L380.946 235.499L389.869 111.068L403.634 82.1914L391.035 264.69Z" fill="#A0E3DD"/>
<path d="M314.227 88.7383L355.478 100.89L279.97 170.302L239.93 161.827L314.227 88.7383Z" fill="#2A56C7"/>
<path d="M328.216 57.3955L314.227 88.7386L239.93 161.828L222.577 163.711L328.216 57.3955Z" fill="#4971DA"/>
<path d="M239.93 161.828L279.97 170.302L345.21 229.536L302.255 222.362L239.93 161.828Z" fill="#2A56C7"/>
<path d="M222.577 163.711L239.93 161.828L302.255 222.361L311.133 253.57L222.577 163.711Z" fill="#4971DA"/>
<path d="M354.761 259.668L311.133 253.57L328.216 57.3955L369.333 70.9372L354.761 259.668Z" fill="#062A85"/>
<path d="M311.133 253.57L302.255 222.361L314.227 88.7386L328.216 57.3955L311.133 253.57Z" fill="#4971DA"/>
<path d="M231.59 64.3452L279.387 78.4698L206.346 154.742L160.655 145.102L231.59 64.3452Z" fill="#64DDD1"/>
<path d="M245.669 30.2217L231.59 64.3448L160.656 145.101L144.738 147.613L245.669 30.2217Z" fill="#A0E3DD"/>
<path d="M160.655 145.102L206.346 154.742L265.891 216.262L215.896 207.922L160.655 145.102Z" fill="#64DDD1"/>
<path d="M144.738 147.613L160.656 145.102L215.897 207.922L223.071 241.328L144.738 147.613Z" fill="#A0E3DD"/>
<path d="M274.097 248.457L223.071 241.328L245.67 30.2217L293.423 45.9156L274.097 248.457Z" fill="#1BBEAD"/>
<path d="M223.071 241.328L215.896 207.922L231.59 64.3448L245.669 30.2217L223.071 241.328Z" fill="#A0E3DD"/>
<path d="M139.896 37.2617L195.495 53.6731L126.31 137.838L73.9834 126.762L139.896 37.2617Z" fill="#2A56C7"/>
<path d="M153.886 0L139.896 37.2619L73.9839 126.762L60.084 130.17L153.886 0Z" fill="#4971DA"/>
<path d="M73.9834 126.763L126.31 137.838L178.008 201.6L119.584 191.825L73.9834 126.763Z" fill="#2A56C7"/>
<path d="M60.083 130.171L73.9829 126.763L119.583 191.825L124.426 227.652L60.083 130.171Z" fill="#4971DA"/>
<path d="M184.33 235.947L124.426 227.652L153.885 0L209.529 18.3395L184.33 235.947Z" fill="#062A85"/>
<path d="M124.427 227.652L119.584 191.825L139.896 37.2619L153.885 0L124.427 227.652Z" fill="#4971DA"/>
<path d="M39.6371 41.7905L129.583 123.13L23.0918 148.689L39.6371 41.7905Z" fill="#7FEEE2"/>
<path d="M20.3118 98.6924L0 106.091L39.6371 41.7905L20.3118 98.6924Z" fill="#40E1D1"/>
<path d="M20.3118 98.6929L23.0917 148.689L0 106.091L20.3118 98.6929Z" fill="#40E1D1"/>
<path d="M20.3115 98.6923L39.6369 41.7905L23.0915 148.689L20.3115 98.6923Z" fill="#40E1D1"/>
</svg>
