<svg width="95" height="97" viewBox="0 0 95 97" fill="none" xmlns="http://www.w3.org/2000/svg">
<path d="M60.2725 9.64917L81.5798 16.7094L87.8778 69.6027L66.5116 55.7175L60.2725 9.64917Z" fill="#64DDD1"/>
<path d="M66.5119 55.7175L87.8781 69.6028L37.4351 87.783L21.7783 70.3088L66.5119 55.7175Z" fill="#A0E3DD"/>
<path d="M0 12.8262L55.2695 0L86.7007 8.4135L19.7181 25.7112L0 12.8262Z" fill="#A0E3DD"/>
<path d="M10.5359 69.8379L0 12.8262L19.7181 25.7112L31.8432 96.7847L10.5359 69.8379Z" fill="#64DDD1"/>
<path d="M81.5801 16.7092L86.7009 8.41333L94.1761 73.6621L87.8781 69.6024L81.5801 16.7092Z" fill="#1BBEAD"/>
<path d="M87.8784 69.6025L94.1765 73.6622L31.8438 96.7846L37.4354 87.7828L87.8784 69.6025Z" fill="#1BBEAD"/>
<path d="M28.1347 31.1239L19.7178 25.711L86.7004 8.41333L81.5796 16.7092L28.1347 31.1239Z" fill="#1BBEAD"/>
<path d="M37.4346 87.7828L31.8429 96.7847L19.7178 25.7112L28.1347 31.1241L37.4346 87.7828Z" fill="#1BBEAD"/>
<path d="M40.5547 38.6552L65.629 31.4185L91.4686 43.7151L62.6272 52.9523L40.5547 38.6552Z" fill="#2A56C7"/>
<path d="M44.7926 66.0136L40.5547 38.655L62.6272 52.9521L67.1005 85.194L44.7926 66.0136Z" fill="#4971DA"/>
<path d="M67.1003 85.1942L62.627 52.9523L91.4683 43.7151L94.9999 74.7803L67.1003 85.1942Z" fill="#062A85"/>
</svg>
