<svg width="117" height="132" viewBox="0 0 117 132" fill="none" xmlns="http://www.w3.org/2000/svg">
<path d="M9.73036 97.7212L5.03809 86.8446L12.5586 82.3774L17.4437 93.513L9.73036 97.7212Z" fill="#1BBEAD"/>
<path d="M25.1701 90.8478L17.4416 93.4773L12.5469 82.4459L20.4042 80.2012L25.1701 90.8478Z" fill="#A0E3DD"/>
<path d="M17.5075 95.005L9.7168 97.7215L17.4431 93.5175L25.1694 90.8657L17.5075 95.005Z" fill="#64DDD1"/>
<path d="M0.467773 53.0633L2.33512 41.5698L11.3499 45.444L9.28937 57.1312L0.467773 53.0633Z" fill="#1BBEAD"/>
<path d="M19.4033 44.4521L11.3444 45.4873L2.31836 41.6051L10.5707 40.6992L19.4033 44.4521Z" fill="#64DDD1"/>
<path d="M17.3398 55.7091L9.28223 57.131L11.345 45.433L19.4026 44.3989L17.3398 55.7091Z" fill="#A0E3DD"/>
<path d="M33.8195 111.977L43.6698 117.461L41.0302 128.3L31.373 122.752L33.8195 111.977Z" fill="#1BBEAD"/>
<path d="M50.8521 113.897L43.7518 117.527L33.876 112.018L41.1699 108.712L50.8521 113.897Z" fill="#A0E3DD"/>
<path d="M48.2571 124.452L41.0576 128.3L43.7169 117.527L50.8515 113.936L48.2571 124.452Z" fill="#64DDD1"/>
<path d="M32.2429 18.1275L23.2767 24.7022L17.9873 13.0997L26.76 6.20264L32.2429 18.1275Z" fill="#1BBEAD"/>
<path d="M31.3985 24.3132L23.3203 24.7025L32.3033 18.0853L40.1876 17.9556L31.3985 24.3132Z" fill="#A0E3DD"/>
<path d="M40.1868 17.9359L32.298 18.0641L26.8018 6.20264L34.8845 6.52322L40.1868 17.9359Z" fill="#64DDD1"/>
<path d="M83.3897 111.542L76.9272 115.352L66.5225 119.485L73.1789 115.61L83.3897 111.542Z" fill="#A0E3DD"/>
<path d="M82.8456 128.177L72.2226 132L66.5225 119.496L76.9512 115.35L82.8456 128.177Z" fill="#1BBEAD"/>
<path d="M89.0479 123.851L82.8156 128.191L76.9688 115.364L83.3938 111.542L89.0479 123.851Z" fill="#64DDD1"/>
<path d="M58.9122 0L70.984 3.63046L67.498 18.2819L55.749 14.3922L58.9122 0Z" fill="#1BBEAD"/>
<path d="M78.1656 4.1352L70.9911 3.67574L58.9043 0L66.402 0.590743L78.1656 4.1352Z" fill="#A0E3DD"/>
<path d="M74.6762 18.1527L67.502 18.2817L70.9921 3.69971L78.1664 4.15136L74.6762 18.1527Z" fill="#64DDD1"/>
<path d="M93.8359 95.8795L97.7842 82.7041L111.247 88.4241L106.911 101.857L93.8359 95.8795Z" fill="#1BBEAD"/>
<path d="M116.906 85.3408L111.212 88.363L97.7539 82.64L103.901 79.875L116.906 85.3408Z" fill="#64DDD1"/>
<path d="M112.643 98.3265L106.895 101.857L111.222 88.4416L116.906 85.4248L112.643 98.3265Z" fill="#A0E3DD"/>
<path d="M95.1344 51.5813L88.7217 38.1193L101.094 30.9053L107.765 44.8181L95.1344 51.5813Z" fill="#4971DA"/>
<path d="M113.75 43.5435L107.761 44.834L101.127 30.8972L107.31 30.252L113.75 43.5435Z" fill="#2A56C7"/>
<path d="M101.474 50.0994L95.1416 51.5811L107.741 44.8168L113.75 43.5283L101.474 50.0994Z" fill="#062A85"/>
</svg>
