<svg width="197" height="208" viewBox="0 0 197 208" fill="none" xmlns="http://www.w3.org/2000/svg">
<path d="M106.542 123.919L100.845 87.5127L148.988 100.161L151.495 137.365L106.542 123.919Z" fill="#A0E3DD"/>
<path d="M100.845 87.5128L123.805 56.9175L169.898 67.3438L148.988 100.161L100.845 87.5128Z" fill="#64DDD1"/>
<path d="M73.3265 170.752L64.4385 134.687L91.7862 98.2808L98.2244 134.687L73.3265 170.752Z" fill="#2A56C7"/>
<path d="M30.3106 155.256L18.6309 119.761L64.4384 134.688L73.3264 170.753L30.3106 155.256Z" fill="#062A85"/>
<path d="M18.6309 119.76L47.5739 86.0312L91.7861 98.2808L64.4384 134.687L18.6309 119.76Z" fill="#4971DA"/>
<path d="M148.02 86.4877L144.943 40.7371L168.36 8.60352L169.556 53.7843L148.02 86.4877Z" fill="#1BBEAD"/>
<path d="M98.7937 74.181L91.8428 29.7979L144.943 40.737L148.02 86.4875L98.7937 74.181Z" fill="#A0E3DD"/>
<path d="M91.8428 29.7977L117.652 0L168.36 8.60315L144.943 40.7368L91.8428 29.7977Z" fill="#64DDD1"/>
<path d="M174.114 207.9L173.202 170.866L195.536 127.851L194.739 165.682L174.114 207.9Z" fill="#2A56C7"/>
<path d="M121.583 188.928L116.284 152.293L173.202 170.867L174.113 207.9L121.583 188.928Z" fill="#062A85"/>
<path d="M116.284 152.293L141.41 112.81L195.536 127.851L173.202 170.867L116.284 152.293Z" fill="#4971DA"/>
<path d="M61.1904 121.413L50.1943 76.6878L81.5303 40.5659L89.4498 85.063L61.1904 121.413Z" fill="#2A56C7"/>
<path d="M14.3576 106.827L0 63.2988L50.1945 76.6878L61.1906 121.413L14.3576 106.827Z" fill="#062A85"/>
<path d="M0 63.2988L33.2161 29.9688L81.5305 40.566L50.1945 76.6879L0 63.2988Z" fill="#4971DA"/>
<path d="M172.862 157.022L171.665 109.847L196.905 66.4893L195.879 113.835L172.862 157.022Z" fill="#2A56C7"/>
<path d="M114.291 138.733L107.625 92.6973L171.664 109.847L172.861 157.021L114.291 138.733Z" fill="#062A85"/>
<path d="M107.625 92.6972L136.397 53.2139L196.904 66.4889L171.664 109.847L107.625 92.6972Z" fill="#4971DA"/>
</svg>
