<svg width="114" height="151" viewBox="0 0 114 151" fill="none" xmlns="http://www.w3.org/2000/svg">
<path d="M90.8377 79.2031L110.287 81.4692L95.8658 90.4784L76.1953 87.8807L90.8377 79.2031Z" fill="#2A56C7"/>
<path d="M99.3472 113.582L95.8662 90.4784L110.288 81.4692L113.327 104.02L99.3472 113.582Z" fill="#4971DA"/>
<path d="M79.9526 110.376L76.1953 87.8809L95.8658 90.4786L99.3468 113.582L79.9526 110.376Z" fill="#062A85"/>
<path d="M84.9808 40.9561L104.983 42.172L89.8432 50.131L69.6201 48.6387L84.9808 40.9561Z" fill="#2A56C7"/>
<path d="M93.5458 74.8922L89.8438 50.1309L104.983 42.1719L108.243 66.27L93.5458 74.8922Z" fill="#4971DA"/>
<path d="M73.6537 72.6815L69.6201 48.6387L89.8432 50.131L93.5452 74.8923L73.6537 72.6815Z" fill="#062A85"/>
<path d="M66.0838 93.8501L85.92 96.7242L69.7305 106.839L49.7285 103.578L66.0838 93.8501Z" fill="#2A56C7"/>
<path d="M73.985 130.937L69.7305 106.839L85.92 96.7241L89.622 120.214L73.985 130.937Z" fill="#4971DA"/>
<path d="M54.2594 127.012L49.7285 103.577L69.7305 106.838L73.9851 130.936L54.2594 127.012Z" fill="#062A85"/>
<path d="M78.7378 0.0552711L99.2371 0L83.3239 6.68778L62.6035 6.57724L78.7378 0.0552711Z" fill="#2A56C7"/>
<path d="M87.3015 33.3284L83.3232 6.68778L99.2365 0L102.773 25.8668L87.3015 33.3284Z" fill="#4971DA"/>
<path d="M66.9133 32.3891L62.6035 6.57764L83.3239 6.68818L87.3022 33.3288L66.9133 32.3891Z" fill="#062A85"/>
<path d="M59.0112 53.9448L79.3448 55.603L62.3265 64.5568L41.8271 62.5671L59.0112 53.9448Z" fill="#64DDD1"/>
<path d="M66.857 90.5337L62.3262 64.5564L79.3445 55.6025L83.378 80.8613L66.857 90.5337Z" fill="#A0E3DD"/>
<path d="M46.6343 87.7147L41.8271 62.5664L62.3265 64.5562L66.8573 90.5335L46.6343 87.7147Z" fill="#1BBEAD"/>
<path d="M38.4016 110.266L58.5142 113.858L40.2803 125.299L20.002 121.209L38.4016 110.266Z" fill="#2A56C7"/>
<path d="M45.4189 150.447L40.2803 125.299L58.5142 113.858L63.1003 138.398L45.4189 150.447Z" fill="#4971DA"/>
<path d="M25.4721 145.639L20.002 121.209L40.2803 125.299L45.4189 150.447L25.4721 145.639Z" fill="#062A85"/>
<path d="M51.4413 11.0542L72.3274 11.3306L54.3146 18.9027L33.2627 18.35L51.4413 11.0542Z" fill="#2A56C7"/>
<path d="M59.2321 46.925L54.3145 18.9027L72.3273 11.3306L76.6371 38.5238L59.2321 46.925Z" fill="#4971DA"/>
<path d="M38.5118 45.4881L33.2627 18.3501L54.3146 18.9028L59.2322 46.9251L38.5118 45.4881Z" fill="#062A85"/>
<path d="M29.8372 68.5361L50.5023 70.8022L31.1633 80.9721L10.3877 78.2085L29.8372 68.5361Z" fill="#2A56C7"/>
<path d="M36.7438 108.165L31.1631 80.9716L50.5021 70.8018L55.4197 97.2213L36.7438 108.165Z" fill="#4971DA"/>
<path d="M16.2999 104.628L10.3877 78.2085L31.1633 80.972L36.744 108.165L16.2999 104.628Z" fill="#062A85"/>
<path d="M20.6098 23.4351L41.7722 24.2089L21.2729 32.8311L0 31.7257L20.6098 23.4351Z" fill="#2A56C7"/>
<path d="M27.3504 62.4012L21.2725 32.8312L41.7718 24.209L47.1314 52.8393L27.3504 62.4012Z" fill="#4971DA"/>
<path d="M6.40949 60.3006L0 31.7256L21.2729 32.831L27.3508 62.4009L6.40949 60.3006Z" fill="#062A85"/>
</svg>
