<svg width="121" height="182" viewBox="0 0 121 182" fill="none" xmlns="http://www.w3.org/2000/svg">
<path d="M54.2874 161.307L38.2227 126.386L82.5348 142.781L93.6349 179.456L54.2874 161.307Z" fill="#A0E3DD"/>
<path d="M82.5345 142.78L114.064 105.385L119.572 143.488L93.6346 179.455L82.5345 142.78Z" fill="#1BBEAD"/>
<path d="M38.2216 126.385L70.9141 95.0318L114.063 105.385L82.5337 142.78L38.2216 126.385Z" fill="#64DDD1"/>
<path opacity="0.8" d="M32.0967 114.213L66.4988 80.6565L111.942 91.7764L78.7691 131.804L32.0967 114.213Z" fill="#4971DA"/>
<path opacity="0.6" d="M22.8268 93.9217L59.6252 57.929L108.241 69.863L72.7577 112.798L22.8268 93.9217Z" fill="#4971DA"/>
<path opacity="0.4" d="M10.6233 70.7553L50.844 31.9925L103.942 44.8055L65.1538 91.0393L10.6233 70.7553Z" fill="#4971DA"/>
<path opacity="0.2" d="M1.67378 45.7005L46.6343 2.36969L105.99 16.6926L62.6304 68.3749L1.67378 45.7005Z" fill="#4971DA"/>
</svg>
