<svg width="150" height="85" viewBox="0 0 150 85" fill="none" xmlns="http://www.w3.org/2000/svg">
<path d="M39.5881 51.4277L83.6402 1.55516L148.071 24.3311L105.477 80.4737L39.5881 51.4277Z" fill="#64DDD1"/>
<path fill-rule="evenodd" clip-rule="evenodd" d="M45.6363 2.70679L47.0901 3.2207L46.7723 4.11963L45.925 3.82012L45.3513 4.46962L44.6367 3.83842L45.6363 2.70679ZM51.3745 5.74649L49.0734 4.93306L49.3912 4.03413L51.6923 4.84755L51.3745 5.74649ZM43.778 6.25078L42.2047 8.03195L41.4901 7.40075L43.0634 5.61959L43.778 6.25078ZM55.9767 7.37335L53.6756 6.55992L53.9934 5.66098L56.2945 6.47441L55.9767 7.37335ZM60.5789 9.0002L58.2778 8.18677L58.5956 7.28784L60.8966 8.10127L60.5789 9.0002ZM40.6314 9.81311L39.0581 11.5943L38.3436 10.9631L39.9168 9.18191L40.6314 9.81311ZM65.1811 10.6271L62.88 9.81363L63.1977 8.91469L65.4988 9.72812L65.1811 10.6271ZM69.7833 12.2539L67.4822 11.4405L67.7999 10.5415L70.101 11.355L69.7833 12.2539ZM37.4849 13.3754L35.9116 15.1566L35.197 14.5254L36.7703 12.7442L37.4849 13.3754ZM74.3855 13.8808L72.0844 13.0673L72.4021 12.1684L74.7032 12.9818L74.3855 13.8808ZM78.9877 15.5076L76.6866 14.6942L77.0043 13.7953L79.3054 14.6087L78.9877 15.5076ZM34.3383 16.9378L32.765 18.7189L32.0504 18.0877L33.6237 16.3066L34.3383 16.9378ZM83.5898 17.1345L81.2888 16.3211L81.6065 15.4221L83.9076 16.2355L83.5898 17.1345ZM88.192 18.7613L85.891 17.9479L86.2087 17.049L88.5098 17.8624L88.192 18.7613ZM92.7942 20.3882L90.4931 19.5748L90.8109 18.6758L93.112 19.4893L92.7942 20.3882ZM31.1917 20.5001L29.6184 22.2813L28.9038 21.6501L30.4771 19.8689L31.1917 20.5001ZM97.3964 22.015L95.0953 21.2016L95.4131 20.3027L97.7142 21.1161L97.3964 22.015ZM101.999 23.6419L99.6975 22.8285L100.015 21.9295L102.316 22.743L101.999 23.6419ZM28.0451 24.0624L26.4718 25.8436L25.7573 25.2124L27.3305 23.4312L28.0451 24.0624ZM106.601 25.2688L104.3 24.4553L104.618 23.5564L106.919 24.3698L106.601 25.2688ZM109.437 26.2713L108.902 26.0822L109.22 25.1833L110.986 25.8075L109.881 27.2633L109.122 26.687L109.437 26.2713ZM24.8986 27.6248L23.3253 29.4059L22.6107 28.7747L24.184 26.9936L24.8986 27.6248ZM106.282 30.4298L107.702 28.5584L108.461 29.1347L107.042 31.0061L106.282 30.4298ZM21.752 31.1871L20.1787 32.9683L19.4641 32.3371L21.0374 30.5559L21.752 31.1871ZM103.442 34.1727L104.862 32.3013L105.622 32.8775L104.202 34.749L103.442 34.1727ZM18.6054 34.7494L17.0321 36.5306L16.3175 35.8994L17.8908 34.1182L18.6054 34.7494ZM15.4588 38.3117L13.8856 40.0929L13.171 39.4617L14.7442 37.6805L15.4588 38.3117ZM100.603 37.9155L102.023 36.0441L102.782 36.6204L101.362 38.4918L100.603 37.9155ZM12.3123 41.8741L10.739 43.6552L10.0244 43.024L11.5977 41.2429L12.3123 41.8741ZM97.7632 41.6583L99.183 39.7869L99.9426 40.3632L98.5228 42.2346L97.7632 41.6583ZM9.1657 45.4364L7.59241 47.2176L6.87781 46.5864L8.4511 44.8052L9.1657 45.4364ZM94.9236 45.4012L96.3434 43.5298L97.103 44.106L95.6831 45.9775L94.9236 45.4012ZM6.01912 48.9987L4.44584 50.7799L3.73124 50.1487L5.30452 48.3675L6.01912 48.9987ZM92.0839 49.144L93.5038 47.2726L94.2633 47.8489L92.8435 49.7203L92.0839 49.144ZM2.51763 52.9629L2.87255 52.5611L2.15795 51.9299L0.939587 53.3092L2.63445 54.0564L3.01905 53.1839L2.51763 52.9629ZM89.2443 52.8868L90.6641 51.0154L91.4237 51.5917L90.0039 53.4631L89.2443 52.8868ZM5.21533 54.1521L7.41162 55.1203L7.02702 55.9927L4.83073 55.0246L5.21533 54.1521ZM9.6079 56.0885L11.8042 57.0567L11.4196 57.9291L9.2233 56.9609L9.6079 56.0885ZM86.4047 56.6297L87.8245 54.7583L88.5841 55.3346L87.1643 57.206L86.4047 56.6297ZM14.0005 58.0249L16.1967 58.9931L15.8121 59.8655L13.6159 58.8973L14.0005 58.0249ZM83.5651 60.3725L84.9849 58.5011L85.7445 59.0774L84.3247 60.9488L83.5651 60.3725ZM18.393 59.9613L20.5893 60.9295L20.2047 61.8019L18.0084 60.8337L18.393 59.9613ZM22.7856 61.8977L24.9819 62.8659L24.5973 63.7383L22.401 62.7701L22.7856 61.8977ZM80.7255 64.1154L82.1453 62.2439L82.9048 62.8202L81.485 64.6916L80.7255 64.1154ZM27.1781 63.8341L29.3744 64.8023L28.9898 65.6747L26.7935 64.7065L27.1781 63.8341ZM31.5707 65.7705L33.767 66.7387L33.3824 67.6111L31.1861 66.6429L31.5707 65.7705ZM77.8858 67.8582L79.3056 65.9868L80.0652 66.5631L78.6454 68.4345L77.8858 67.8582ZM35.9633 67.7069L38.1596 68.6751L37.775 69.5475L35.5787 68.5793L35.9633 67.7069ZM40.3558 69.6433L42.5521 70.6115L42.1675 71.4839L39.9712 70.5157L40.3558 69.6433ZM75.0462 71.601L76.466 69.7296L77.2256 70.3059L75.8058 72.1773L75.0462 71.601ZM44.7484 71.5797L46.9447 72.5479L46.5601 73.4203L44.3638 72.4521L44.7484 71.5797ZM49.141 73.5161L51.3372 74.4843L50.9526 75.3567L48.7564 74.3885L49.141 73.5161ZM72.2066 75.3439L73.6264 73.4724L74.386 74.0487L72.9662 75.9201L72.2066 75.3439ZM53.5335 75.4525L55.7298 76.4207L55.3452 77.2931L53.1489 76.3249L53.5335 75.4525ZM57.9261 77.3888L60.1224 78.357L59.7378 79.2295L57.5415 78.2613L57.9261 77.3888ZM69.367 79.0867L70.7868 77.2153L71.5464 77.7916L70.1266 79.663L69.367 79.0867ZM62.3187 79.3252L64.5149 80.2934L64.1303 81.1659L61.9341 80.1977L62.3187 79.3252ZM67.4648 81.5939L67.9472 80.9581L68.7067 81.5344L67.7693 82.7701L66.3266 82.1341L66.7112 81.2616L67.4648 81.5939Z" fill="#062A85"/>
</svg>
