<?xml version="1.0" encoding="UTF-8" standalone="no"?>
<svg
   xmlns:dc="http://purl.org/dc/elements/1.1/"
   xmlns:cc="http://creativecommons.org/ns#"
   xmlns:rdf="http://www.w3.org/1999/02/22-rdf-syntax-ns#"
   xmlns:svg="http://www.w3.org/2000/svg"
   xmlns="http://www.w3.org/2000/svg"
   id="svg8"
   version="1.1"
   viewBox="0 0 52.653015 50.312099"
   height="50.312099mm"
   width="52.653015mm">
  <defs
     id="defs2">
    <linearGradient
       id="paint0_linear"
       x1="200.536"
       y1="-34.2117"
       x2="84.208099"
       y2="121.389"
       gradientUnits="userSpaceOnUse">
      <stop
         stop-color="#E0EAF2"
         id="stop855" />
      <stop
         offset="1"
         stop-color="#93B8D4"
         id="stop857" />
    </linearGradient>
  </defs>
  <metadata
     id="metadata5">
    <rdf:RDF>
      <cc:Work
         rdf:about="">
        <dc:format>image/svg+xml</dc:format>
        <dc:type
           rdf:resource="http://purl.org/dc/dcmitype/StillImage" />
        <dc:title></dc:title>
      </cc:Work>
    </rdf:RDF>
  </metadata>
  <g
     transform="translate(201.56807,-410.50048)"
     id="layer1">
    <g
       transform="translate(8.8198944,16.303441)"
       id="g1128">
      <path
         id="path1036"
         d="m -172.48996,441.30451 -4.05262,-7.96528 7.48401,2.70086 3.928,8.09705 z"
         style="fill:#40e1d1;stroke-width:0.26458332" />
      <path
         id="path1038"
         d="m -161.43222,429.0117 -7.62635,7.02839 -7.48427,-2.70086 7.63323,-6.72439 z"
         style="fill:#7feee2;stroke-width:0.26458332" />
      <path
         id="path1040"
         d="m -209.29723,437.68421 2.81506,-8.17139 6.31127,6.82334 -3.20831,8.17298 z"
         style="fill:#40e1d1;stroke-width:0.26458332" />
      <path
         id="path1042"
         d="m -203.37911,444.50888 3.20831,-8.17298 8.82717,-2.19763 -3.50383,8.08249 z"
         style="fill:#1bbead;stroke-width:0.26458332" />
      <path
         id="path1044"
         d="m -196.26973,396.9183 0.84619,1.96265 -0.24294,0.10475 -0.76594,-1.77647 -0.98062,1.75041 -2.2e-4,-1.1e-4 -5e-5,8e-5 -0.23082,-0.12933 0.99795,-1.78133 -2.07697,0.0517 -0.007,-0.26451 2.23422,-0.0556 0.094,-0.16785 0.0706,0.16375 0.14264,-0.004 z m -4.44441,7.9339 1.07812,-1.9245 -0.23082,-0.1293 -6e-5,8e-5 -2.1e-4,-1.3e-4 -1.07323,1.91576 -2.24533,-0.0185 -0.002,0.26456 h 6e-5 v 2.4e-4 l 2.24059,0.0185 0.90353,1.90902 0.23916,-0.11318 -3e-5,-8e-5 2.4e-4,-1.1e-4 z m 7.6382,0.14195 -0.84667,-1.96371 0.24297,-0.10475 0.89725,2.08103 -1.07463,2.00199 -0.23312,-0.12515 z m -4.02347,7.49551 -0.82687,-1.74707 -0.23916,0.11319 3e-5,5e-5 -2.4e-4,1.4e-4 0.8455,1.78644 -2.03808,-0.0822 -0.0107,0.26435 2.17684,0.0878 0.0778,0.16441 0.0848,-0.15785 0.13557,0.005 -0.0649,-0.13713 1.01301,-1.88717 -0.23312,-0.12515 z m -10.73345,-7.83219 h 5e-5 l -0.002,0.26458 -2.10245,-0.0174 0.90312,1.71643 -0.23415,0.12322 -0.96937,-1.84235 -0.1503,-10e-4 0.0791,-0.13404 -0.0685,-0.13023 0.1447,10e-4 1.08724,-1.84193 0.22783,0.13452 -1.00919,1.70971 2.09409,0.0173 z m 1.78128,7.63262 -0.97055,-1.84465 -0.23415,0.12319 1.04161,1.97966 2.33272,0.0941 0.0107,-0.26437 z m 2.70999,-15.0744 -0.007,-0.2645 -2.38254,0.0593 -1.16317,1.97053 0.22786,0.13452 1.08858,-1.8442 z"
         style="clip-rule:evenodd;fill:#062a85;fill-rule:evenodd;stroke-width:0.26458332" />
      <path
         id="path1046"
         d="m -197.83889,427.56681 6.49531,6.57146 -8.82714,2.19789 -6.31126,-6.82334 z"
         style="fill:#7feee2;stroke-width:0.26458332" />
      <path
         id="path1048"
         d="m -157.89289,437.08599 -7.23742,7.05115 -3.928,-8.09705 7.62661,-7.02839 z"
         style="fill:none;stroke:#062a85;stroke-width:0.26458332;stroke-dasharray:5.2916666, 5.2916666" />
      <path
         id="path1050"
         d="m -174.48412,398.45828 7.67292,7.09813 -2.24896,7.93745 -7.09639,-7.40711 z"
         style="fill:#7feee2;stroke-width:0.26458332" />
      <path
         id="path1052"
         d="m -180.43592,402.99766 1.61898,1.6188 c 0.0992,0.0993 0.0992,0.26037 0,0.35972 l -1.61898,1.6188 c -0.0992,0.0993 -0.26035,0.0993 -0.35957,0 -0.0995,-0.0994 -0.0995,-0.2604 0,-0.35972 l 1.18454,-1.18457 h -9.3064 v -0.50874 h 9.3064 l -1.18454,-1.18457 c -0.0995,-0.0993 -0.0995,-0.2604 0,-0.35972 0.0992,-0.0994 0.26035,-0.0994 0.35957,0 z"
         style="clip-rule:evenodd;fill:#062a85;fill-rule:evenodd;stroke-width:0.26458332" />
      <path
         id="path1054"
         d="m -187.47852,438.51844 -1.6188,-1.61872 c -0.0993,-0.0992 -0.0993,-0.26035 0,-0.35957 l 1.6188,-1.61898 c 0.0994,-0.0992 0.2604,-0.0992 0.35975,0 0.0993,0.0995 0.0993,0.26035 0,0.35983 l -1.18456,1.18454 h 9.30621 v 0.5088 h -9.30621 l 1.18456,1.18454 c 0.0993,0.0992 0.0993,0.26035 0,0.35956 -0.0993,0.0995 -0.2604,0.0995 -0.35975,0 z"
         style="clip-rule:evenodd;fill:#062a85;fill-rule:evenodd;stroke-width:0.26458332" />
      <path
         id="path1056"
         d="m -167.15093,421.67216 -1.61872,1.61872 c -0.0992,0.0995 -0.26035,0.0995 -0.35957,0 l -1.61898,-1.61872 c -0.0992,-0.0995 -0.0992,-0.26035 0,-0.35983 0.0995,-0.0992 0.26035,-0.0992 0.35983,0 l 1.18454,1.18454 v -6.38099 h 0.50879 v 6.38099 l 1.18454,-1.18454 c 0.0992,-0.0992 0.26035,-0.0992 0.35957,0 0.0995,0.0995 0.0995,0.26035 0,0.35983 z"
         style="clip-rule:evenodd;fill:#062a85;fill-rule:evenodd;stroke-width:0.26458332" />
      <path
         id="path1058"
         d="m -158.72077,401.10012 -2.10847,1.21428 -0.13203,-0.22929 1.7907,-1.03127 -1.74942,-1.55813 0.17595,-0.19756 z m -8.00444,4.30427 1.86451,-1.07374 0.13203,0.22929 -2.03491,1.17181 -1.95897,-1.84483 0.18124,-0.19264 z m 0.21457,-10.88789 1.81795,1.61911 0.17595,-0.19757 -1.955,-1.741 -2.032,1.06798 0.12329,0.23421 z m -7.55861,3.9725 1.7526,1.65034 -0.18124,0.19261 -2.02274,-1.9046 2.11508,-1.11165 0.12329,0.23421 z"
         style="clip-rule:evenodd;fill:#062a85;fill-rule:evenodd;stroke-width:0.26458332" />
      <path
         id="path1060"
         d="m -169.12657,413.51016 0.63182,-2.23573 0.2548,0.072 -0.45032,1.59252 1.62824,-0.9793 0.13653,0.22675 z m 6.03012,-3.62688 -0.13626,-0.22672 1.87113,-1.12541 0.56118,-1.83679 0.25321,0.0773 -0.59108,1.93389 z m -4.31615,-2.43708 0.55589,-1.96593 1.99628,-1.14962 0.13203,0.22926 -1.90315,1.09594 -0.52626,1.86232 z m 8.01767,-4.44521 -0.25321,-0.0773 0.47837,-1.56474 -1.6592,0.95546 -0.13203,-0.22926 2.23996,-1.29008 z"
         style="clip-rule:evenodd;fill:#062a85;fill-rule:evenodd;stroke-width:0.26458332" />
    </g>
  </g>
</svg>
