<svg width="120" height="46" viewBox="0 0 120 46" fill="none" xmlns="http://www.w3.org/2000/svg">
<g style="mix-blend-mode:exclusion">
<path fill-rule="evenodd" clip-rule="evenodd" d="M74.2632 12.6963C74.2286 12.6963 74.1942 12.6972 74.1601 12.6991C74.1259 12.6972 74.0915 12.6963 74.0569 12.6963H67.476C66.4628 12.6963 65.6416 13.4975 65.6416 14.4859L65.6416 14.4892L65.6416 14.4925V23.3683C65.6371 23.4194 65.6348 23.4711 65.6348 23.5233C65.6348 23.5755 65.6371 23.6272 65.6416 23.6783V30.0619C65.6416 31.0503 66.4628 31.8515 67.476 31.8515C68.4891 31.8515 69.3104 31.0503 69.3104 30.0619V25.3129H74.0501C74.0719 25.3129 74.0937 25.3125 74.1153 25.3118C74.1651 25.3173 74.2145 25.3201 74.2632 25.3201C77.8403 25.3201 80.7631 22.5338 80.7631 19.0373C80.7631 15.5408 77.8472 12.6963 74.2632 12.6963ZM74.0561 16.2754C74.0907 16.2754 74.1251 16.2745 74.1592 16.2726C74.1934 16.2745 74.2278 16.2754 74.2624 16.2754C75.8233 16.2754 77.0931 17.5143 77.0931 19.0373C77.0931 20.5601 75.8215 21.7408 74.2624 21.7408L74.2169 21.741C74.1617 21.7361 74.1058 21.7337 74.0493 21.7337H69.3101V16.2754H74.0561Z" fill="#131416"/>
<path d="M53.0241 12.8282C52.8747 12.7757 52.7154 12.7421 52.549 12.7305C50.0732 12.5583 48.1727 13.0367 46.902 14.1508C45.8086 15.1095 45.2322 16.466 45.1889 18.1829C45.159 19.3669 45.5503 21.0424 47.5837 22.301C48.5383 22.8918 49.738 23.325 51.3593 23.6643C51.4491 23.6831 51.5388 23.6949 51.6277 23.7C55.216 24.4579 55.6914 25.4182 55.7544 25.9434C55.7385 26.0348 55.7302 26.1288 55.7302 26.2246C55.7302 26.5951 55.6315 27.1296 55.161 27.5722C54.6261 28.0755 53.7432 28.3484 52.5915 28.3693C52.4781 28.344 52.3604 28.3292 52.2396 28.3262C50.1112 28.2735 48.6013 27.4963 47.2868 26.6643C46.4776 26.1522 45.3918 26.3702 44.8613 27.1512C44.3307 27.9322 44.5566 28.9805 45.3657 29.4926C46.9519 30.4966 48.9408 31.5309 51.7328 31.6901C51.866 31.7251 52.0056 31.7454 52.1497 31.749C52.2496 31.7514 52.348 31.7527 52.445 31.7527C55.1566 31.7527 56.7444 30.8053 57.6065 29.9942C58.5838 29.0746 59.1522 27.8503 59.2257 26.5205C59.2531 26.4016 59.2676 26.2781 59.2676 26.1512C59.2676 24.9827 58.8559 23.3223 56.8945 22.0474C55.7652 21.3134 54.2464 20.7715 52.1147 20.3421C52.0345 20.3259 51.9544 20.3153 51.8748 20.31C48.658 19.592 48.6831 18.5971 48.6914 18.2652C48.7202 17.1255 49.1246 16.7709 49.2576 16.6544C49.7385 16.2329 50.6572 16.0378 51.927 16.0841C52.0557 16.1234 52.1912 16.149 52.3318 16.1587C53.2526 16.2226 54.4334 16.6114 55.8414 17.3145C56.0988 17.443 56.3736 17.5039 56.6447 17.5039C57.2787 17.5039 57.8908 17.1705 58.2022 16.5894C58.6466 15.7599 58.3104 14.7396 57.451 14.3104C55.783 13.4776 54.3293 12.9904 53.0241 12.8282Z" fill="#131416"/>
<path fill-rule="evenodd" clip-rule="evenodd" d="M91.312 12.6826C91.2774 12.6826 91.243 12.6836 91.2088 12.6854C91.1747 12.6836 91.1403 12.6826 91.1056 12.6826H84.5248L84.5214 12.6826L84.518 12.6826C83.5049 12.6826 82.6836 13.4842 82.6836 14.4728V30.0477C82.6836 31.0364 83.5049 31.8379 84.518 31.8379C85.5311 31.8379 86.3524 31.0364 86.3524 30.0477V25.3036H89.9529L94.5262 31.0771C94.8876 31.5335 95.4302 31.7726 95.9787 31.7726C96.3705 31.7726 96.7654 31.6506 97.0993 31.3986C97.9009 30.7939 98.0484 29.6696 97.4287 28.8875L94.1126 24.701C96.2965 23.6945 97.8118 21.5443 97.8118 19.0259C97.8118 15.5282 94.896 12.6826 91.312 12.6826ZM91.1053 16.263C91.1399 16.263 91.1743 16.262 91.2085 16.2602C91.2426 16.262 91.277 16.263 91.3116 16.263C92.8725 16.263 94.1424 17.5023 94.1424 19.0258C94.1424 20.5492 92.8707 21.7302 91.3116 21.7302L91.2723 21.7304C91.2173 21.7256 91.1616 21.7231 91.1053 21.7231H86.3525V16.263H91.1053Z" fill="#131416"/>
<path d="M60.7373 23.6269V23.3586C60.7373 22.5975 61.4145 21.9805 62.25 21.9805C63.0854 21.9805 63.7626 22.5975 63.7626 23.3586V23.6269C63.7626 24.388 63.0854 25.005 62.25 25.005C61.4145 25.005 60.7373 24.388 60.7373 23.6269Z" fill="#131416"/>
<path fill-rule="evenodd" clip-rule="evenodd" d="M109.944 12.3291C109.884 12.3291 109.824 12.3321 109.765 12.338C104.332 12.4482 99.9437 16.8861 99.9181 22.335L99.918 22.3552L99.918 22.3691L99.918 22.383L99.9181 22.4032C99.9439 27.9052 104.418 32.3764 109.924 32.4023L109.944 32.4024L109.958 32.4024L109.972 32.4024L109.992 32.4023C115.502 32.3764 119.979 27.8989 119.999 22.3914L119.999 22.3762L119.999 22.3657L119.999 22.3552L119.999 22.34C119.979 16.8166 115.476 12.3291 109.944 12.3291ZM109.971 15.8825C110.016 15.8825 110.06 15.8809 110.104 15.8777C113.614 15.963 116.443 18.8397 116.449 22.3657C116.443 25.9407 113.535 28.8482 109.957 28.8557C106.382 28.8482 103.474 25.9425 103.466 22.3691C103.474 18.7911 106.389 15.8825 109.971 15.8825Z" fill="#131416"/>
</g>
<path fill-rule="evenodd" clip-rule="evenodd" d="M25.7555 6.84647L17.7655 9.79217C15.4491 7.13552 11.7088 6.03278 8.25668 7.30547C3.73684 8.97181 1.42266 14.0793 3.08781 18.7133L3.36554 19.4863C3.85173 20.8393 4.6234 22.0024 5.58491 22.9296C5.45455 23.7929 5.45806 24.6836 5.60972 25.5711C5.60782 25.7484 5.63661 25.9289 5.69949 26.1051L5.76607 26.2917C5.82764 26.5251 5.89983 26.7577 5.98289 26.989C6.0619 27.209 6.14923 27.4235 6.24441 27.6323L10.5185 39.6111L10.5196 39.6141C10.807 40.4143 11.6895 40.8235 12.4906 40.528L25.7193 35.6487C26.0503 35.5266 26.3292 35.2958 26.5118 34.9965C26.8053 34.9819 27.1005 34.9564 27.397 34.9194C33.8467 34.116 38.4432 28.2423 37.6636 21.8002C37.3212 18.9712 35.999 16.503 34.0773 14.6924C34.4096 13.4409 34.3777 12.0726 33.9048 10.7567C32.6931 7.38458 29.0445 5.63389 25.7555 6.84647Z" fill="white"/>
<g style="mix-blend-mode:multiply">
<path d="M37.6621 21.797C38.4406 28.239 33.8432 34.1134 27.3934 34.918C20.9436 35.7225 15.0838 31.1525 14.3052 24.7106C13.5267 18.2686 18.1241 12.3942 24.5739 11.5896C31.0237 10.7851 36.8835 15.3551 37.6621 21.797Z" fill="#FFD740"/>
</g>
<g style="mix-blend-mode:multiply">
<path d="M19.7752 29.8902L25.8721 32.8042C26.6376 33.1701 26.9563 34.0913 26.5841 34.8619C26.4081 35.2263 26.0974 35.5086 25.7185 35.6483L12.4893 40.5281C11.6881 40.8236 10.8056 40.4145 10.5182 39.6143C10.5179 39.6133 10.5175 39.6123 10.5172 39.6113L6.24338 27.6328C6.14821 27.424 6.06088 27.2095 5.98187 26.9895C5.89882 26.7582 5.82664 26.5256 5.76508 26.2922L5.69851 26.1056C5.63562 25.9294 5.60685 25.7489 5.60875 25.5716C4.94059 21.6611 7.14913 17.6891 11.011 16.2646C11.0123 16.2641 11.0137 16.2636 11.015 16.2631C15.3483 14.6648 20.1205 16.8756 21.6741 21.2013C22.7889 24.3055 21.9432 27.6553 19.7752 29.8902Z" fill="#FF4081"/>
</g>
<g style="mix-blend-mode:multiply">
<path d="M17.7667 9.79319L25.758 6.84585C29.0476 5.63259 32.6958 7.38177 33.9067 10.7528C35.1175 14.1238 33.4323 17.84 30.1427 19.0533L15.4527 24.4713C15.1661 24.6153 14.8687 24.7447 14.5612 24.8581C14.2407 24.9763 13.9177 25.074 13.5937 25.152C12.4157 25.5359 11.2003 25.5473 10.0742 25.247C7.10315 24.7015 4.47945 22.5969 3.36322 19.4892L3.08569 18.7165C1.4218 14.0841 3.73757 8.97718 8.25812 7.30991C11.7108 6.03651 15.4509 7.13787 17.7667 9.79319Z" fill="#40C4FF"/>
</g>
</svg>
