<svg width="120" height="45" viewBox="0 0 120 45" fill="none" xmlns="http://www.w3.org/2000/svg">
<g style="mix-blend-mode:exclusion">
<path fill-rule="evenodd" clip-rule="evenodd" d="M74.2632 12.1963C74.2286 12.1963 74.1942 12.1972 74.1601 12.1991C74.1259 12.1972 74.0915 12.1963 74.0569 12.1963H67.476C66.4628 12.1963 65.6416 12.9975 65.6416 13.9859L65.6416 13.9892L65.6416 13.9925V22.8683C65.6371 22.9194 65.6348 22.9711 65.6348 23.0233C65.6348 23.0755 65.6371 23.1272 65.6416 23.1783V29.5619C65.6416 30.5503 66.4628 31.3515 67.476 31.3515C68.4891 31.3515 69.3104 30.5503 69.3104 29.5619V24.8129H74.0501C74.0719 24.8129 74.0937 24.8125 74.1153 24.8118C74.1651 24.8173 74.2145 24.8201 74.2632 24.8201C77.8403 24.8201 80.7631 22.0338 80.7631 18.5373C80.7631 15.0408 77.8472 12.1963 74.2632 12.1963ZM74.0561 15.7754C74.0907 15.7754 74.1251 15.7745 74.1592 15.7726C74.1934 15.7745 74.2278 15.7754 74.2624 15.7754C75.8233 15.7754 77.0931 17.0143 77.0931 18.5373C77.0931 20.0601 75.8215 21.2408 74.2624 21.2408L74.2169 21.241C74.1617 21.2361 74.1058 21.2337 74.0493 21.2337H69.3101V15.7754H74.0561Z" fill="white"/>
<path d="M53.0241 12.3282C52.8747 12.2757 52.7154 12.2421 52.549 12.2305C50.0732 12.0583 48.1727 12.5367 46.902 13.6508C45.8086 14.6095 45.2322 15.966 45.1889 17.6829C45.159 18.8669 45.5503 20.5424 47.5837 21.801C48.5383 22.3918 49.738 22.825 51.3593 23.1643C51.4491 23.1831 51.5388 23.1949 51.6277 23.2C55.216 23.9579 55.6914 24.9182 55.7544 25.4434C55.7385 25.5348 55.7302 25.6288 55.7302 25.7246C55.7302 26.0951 55.6315 26.6296 55.161 27.0722C54.6261 27.5755 53.7432 27.8484 52.5915 27.8693C52.4781 27.844 52.3604 27.8292 52.2396 27.8262C50.1112 27.7735 48.6013 26.9963 47.2868 26.1643C46.4776 25.6522 45.3918 25.8702 44.8613 26.6512C44.3307 27.4322 44.5566 28.4805 45.3657 28.9926C46.9519 29.9966 48.9408 31.0309 51.7328 31.1901C51.866 31.2251 52.0056 31.2454 52.1497 31.249C52.2496 31.2514 52.348 31.2527 52.445 31.2527C55.1566 31.2527 56.7444 30.3053 57.6065 29.4942C58.5838 28.5746 59.1522 27.3503 59.2257 26.0205C59.2531 25.9016 59.2676 25.7781 59.2676 25.6512C59.2676 24.4827 58.8559 22.8223 56.8945 21.5474C55.7652 20.8134 54.2464 20.2715 52.1147 19.8421C52.0345 19.8259 51.9544 19.8153 51.8748 19.81C48.658 19.092 48.6831 18.0971 48.6914 17.7652C48.7202 16.6255 49.1246 16.2709 49.2576 16.1544C49.7385 15.7329 50.6572 15.5378 51.927 15.5841C52.0557 15.6234 52.1912 15.649 52.3318 15.6587C53.2526 15.7226 54.4334 16.1114 55.8414 16.8145C56.0988 16.943 56.3736 17.0039 56.6447 17.0039C57.2787 17.0039 57.8908 16.6705 58.2022 16.0894C58.6466 15.2599 58.3104 14.2396 57.451 13.8104C55.783 12.9776 54.3293 12.4904 53.0241 12.3282Z" fill="white"/>
<path fill-rule="evenodd" clip-rule="evenodd" d="M91.312 12.1826C91.2774 12.1826 91.243 12.1836 91.2088 12.1854C91.1747 12.1836 91.1403 12.1826 91.1056 12.1826H84.5248L84.5214 12.1826L84.518 12.1826C83.5049 12.1826 82.6836 12.9842 82.6836 13.9728V29.5477C82.6836 30.5364 83.5049 31.3379 84.518 31.3379C85.5311 31.3379 86.3524 30.5364 86.3524 29.5477V24.8036H89.9529L94.5262 30.5771C94.8876 31.0335 95.4302 31.2726 95.9787 31.2726C96.3705 31.2726 96.7654 31.1506 97.0993 30.8986C97.9009 30.2939 98.0484 29.1696 97.4287 28.3875L94.1126 24.201C96.2965 23.1945 97.8118 21.0443 97.8118 18.5259C97.8118 15.0282 94.896 12.1826 91.312 12.1826ZM91.1053 15.763C91.1399 15.763 91.1743 15.762 91.2085 15.7602C91.2426 15.762 91.277 15.763 91.3116 15.763C92.8725 15.763 94.1424 17.0023 94.1424 18.5258C94.1424 20.0492 92.8707 21.2302 91.3116 21.2302L91.2723 21.2304C91.2173 21.2256 91.1616 21.2231 91.1053 21.2231H86.3525V15.763H91.1053Z" fill="white"/>
<path d="M60.7373 23.1269V22.8586C60.7373 22.0975 61.4145 21.4805 62.25 21.4805C63.0854 21.4805 63.7626 22.0975 63.7626 22.8586V23.1269C63.7626 23.888 63.0854 24.505 62.25 24.505C61.4145 24.505 60.7373 23.888 60.7373 23.1269Z" fill="white"/>
<path fill-rule="evenodd" clip-rule="evenodd" d="M109.944 11.8291C109.884 11.8291 109.824 11.8321 109.765 11.838C104.332 11.9482 99.9437 16.3861 99.9181 21.835L99.918 21.8552L99.918 21.8691L99.918 21.883L99.9181 21.9032C99.9439 27.4052 104.418 31.8764 109.924 31.9023L109.944 31.9024L109.958 31.9024L109.972 31.9024L109.992 31.9023C115.502 31.8764 119.979 27.3989 119.999 21.8914L119.999 21.8762L119.999 21.8657L119.999 21.8552L119.999 21.84C119.979 16.3166 115.476 11.8291 109.944 11.8291ZM109.971 15.3825C110.016 15.3825 110.06 15.3809 110.104 15.3777C113.614 15.463 116.443 18.3397 116.449 21.8657C116.443 25.4407 113.535 28.3482 109.957 28.3557C106.382 28.3482 103.474 25.4425 103.466 21.8691C103.474 18.2911 106.389 15.3825 109.971 15.3825Z" fill="white"/>
</g>
<path fill-rule="evenodd" clip-rule="evenodd" d="M25.7555 6.34647L17.7655 9.29217C15.4491 6.63552 11.7088 5.53278 8.25668 6.80547C3.73684 8.47181 1.42266 13.5793 3.08781 18.2133L3.36554 18.9863C3.85173 20.3393 4.6234 21.5024 5.58491 22.4296C5.45455 23.2929 5.45806 24.1836 5.60972 25.0711C5.60782 25.2484 5.63661 25.4289 5.69949 25.6051L5.76607 25.7917C5.82764 26.0251 5.89983 26.2577 5.98289 26.489C6.0619 26.709 6.14923 26.9235 6.24441 27.1323L10.5185 39.1111L10.5196 39.1141C10.807 39.9143 11.6895 40.3235 12.4906 40.028L25.7193 35.1487C26.0503 35.0266 26.3292 34.7958 26.5118 34.4965C26.8053 34.4819 27.1005 34.4564 27.397 34.4194C33.8467 33.616 38.4432 27.7423 37.6636 21.3002C37.3212 18.4712 35.999 16.003 34.0773 14.1924C34.4096 12.9409 34.3777 11.5726 33.9048 10.2567C32.6931 6.88458 29.0445 5.13389 25.7555 6.34647Z" fill="white"/>
<g style="mix-blend-mode:multiply">
<path d="M37.6621 21.297C38.4406 27.739 33.8432 33.6134 27.3934 34.418C20.9436 35.2225 15.0838 30.6525 14.3052 24.2106C13.5267 17.7686 18.1241 11.8942 24.5739 11.0896C31.0237 10.2851 36.8835 14.8551 37.6621 21.297Z" fill="#FFD740"/>
</g>
<g style="mix-blend-mode:multiply">
<path d="M19.7752 29.3902L25.8721 32.3042C26.6376 32.6701 26.9563 33.5913 26.5841 34.3619C26.4081 34.7263 26.0974 35.0086 25.7185 35.1483L12.4893 40.0281C11.6881 40.3236 10.8056 39.9145 10.5182 39.1143C10.5179 39.1133 10.5175 39.1123 10.5172 39.1113L6.24338 27.1328C6.14821 26.924 6.06088 26.7095 5.98187 26.4895C5.89882 26.2582 5.82664 26.0256 5.76508 25.7922L5.69851 25.6056C5.63562 25.4294 5.60685 25.2489 5.60875 25.0716C4.94059 21.1611 7.14913 17.1891 11.011 15.7646C11.0123 15.7641 11.0137 15.7636 11.015 15.7631C15.3483 14.1648 20.1205 16.3756 21.6741 20.7013C22.7889 23.8055 21.9432 27.1553 19.7752 29.3902Z" fill="#FF4081"/>
</g>
<g style="mix-blend-mode:multiply">
<path d="M17.7667 9.29319L25.758 6.34585C29.0476 5.13259 32.6958 6.88177 33.9067 10.2528C35.1175 13.6238 33.4323 17.34 30.1427 18.5533L15.4527 23.9713C15.1661 24.1153 14.8687 24.2447 14.5612 24.3581C14.2407 24.4763 13.9177 24.574 13.5937 24.652C12.4157 25.0359 11.2003 25.0473 10.0742 24.747C7.10315 24.2015 4.47945 22.0969 3.36322 18.9892L3.08569 18.2165C1.4218 13.5841 3.73757 8.47718 8.25812 6.80991C11.7108 5.53651 15.4509 6.63787 17.7667 9.29319Z" fill="#40C4FF"/>
</g>
</svg>
